<svg width="140" height="140" viewBox="0 0 140 140" fill="none" xmlns="http://www.w3.org/2000/svg">
<rect width="140" height="140" rx="42" fill="#98D8FF"/>
<path d="M55.3333 37C53.3884 37 51.5232 37.7726 50.1479 39.1479C48.7726 40.5231 48 42.3884 48 44.3333V59C48 60.9449 47.2274 62.8102 45.8521 64.1854C44.4769 65.5607 42.6116 66.3333 40.6667 66.3333H37V73.6667H40.6667C42.6116 73.6667 44.4769 74.4393 45.8521 75.8146C47.2274 77.1898 48 79.0551 48 81V95.6667C48 97.6116 48.7726 99.4768 50.1479 100.852C51.5232 102.227 53.3884 103 55.3333 103H62.6667V95.6667H55.3333V77.3333C55.3333 75.3884 54.5607 73.5232 53.1854 72.1479C51.8102 70.7726 49.9449 70 48 70C49.9449 70 51.8102 69.2274 53.1854 67.8521C54.5607 66.4768 55.3333 64.6116 55.3333 62.6667V44.3333H62.6667V37M84.6667 37C86.6116 37 88.4768 37.7726 89.8521 39.1479C91.2274 40.5231 92 42.3884 92 44.3333V59C92 60.9449 92.7726 62.8102 94.1479 64.1854C95.5232 65.5607 97.3884 66.3333 99.3333 66.3333H103V73.6667H99.3333C97.3884 73.6667 95.5232 74.4393 94.1479 75.8146C92.7726 77.1898 92 79.0551 92 81V95.6667C92 97.6116 91.2274 99.4768 89.8521 100.852C88.4768 102.227 86.6116 103 84.6667 103H77.3333V95.6667H84.6667V77.3333C84.6667 75.3884 85.4393 73.5232 86.8146 72.1479C88.1898 70.7726 90.0551 70 92 70C90.0551 70 88.1898 69.2274 86.8146 67.8521C85.4393 66.4768 84.6667 64.6116 84.6667 62.6667V44.3333H77.3333V37H84.6667Z" fill="white"/>
</svg>
