<svg width="85" height="82" viewBox="0 0 85 82" fill="none" xmlns="http://www.w3.org/2000/svg">
<rect width="85" height="82" rx="15" fill="#DFD3F1"/>
<path fill-rule="evenodd" clip-rule="evenodd" d="M42.4815 66L28.2077 62.1006L24 27H61L56.7943 62.0966L42.4815 66ZM32.3188 42.8888L32.7114 47.1927H47.8753L47.3676 52.7748L42.4877 54.0733H42.4836L37.6119 52.7789L37.2994 49.3467H32.9067L33.5193 56.1059L42.4815 58.5531L51.4581 56.1059L52.5517 44.0437L52.6586 42.8888L53.4479 34.1738H31.5316L31.9303 38.4797H48.6543L48.2556 42.8888H32.3188Z" fill="white"/>
<path d="M32 17H38.4707V19.2999H34.7058V21.5998H38.4707V23.8997H32V17ZM39.7634 17H46.2366V19.0012H42.4716V19.4002H46.2366V24H39.7634V21.9006H43.5284V21.4995H39.7634V17ZM47.5318 17H54V19.0012H50.235V19.4002H54V24H47.5318V21.9006H51.2967V21.4995H47.5318V17Z" fill="white"/>
</svg>
