<svg width="85" height="82" viewBox="0 0 85 82" fill="none" xmlns="http://www.w3.org/2000/svg">
<rect width="85" height="82" rx="15" fill="#DFD3F1"/>
<path d="M34.887 65.0001C39.2406 65.0001 42.774 61.3414 42.774 56.8334V48.6667H34.887C30.5334 48.6667 27 52.3254 27 56.8334C27 61.3414 30.5334 65.0001 34.887 65.0001Z" fill="white"/>
<path d="M27 40.4999C27 35.9919 30.5334 32.3333 34.887 32.3333H42.774V48.6666H34.887C30.5334 48.6666 27 45.0079 27 40.4999Z" fill="white"/>
<path d="M27 24.1667C27 19.6587 30.5334 16 34.887 16H42.774V32.3333H34.887C30.5334 32.3333 27 28.6747 27 24.1667Z" fill="white"/>
<path d="M42.7734 16H50.6604C55.014 16 58.5474 19.6587 58.5474 24.1667C58.5474 28.6747 55.014 32.3333 50.6604 32.3333H42.7734V16Z" fill="white"/>
<path d="M58.5474 40.4999C58.5474 45.0079 55.014 48.6666 50.6604 48.6666C46.3068 48.6666 42.7734 45.0079 42.7734 40.4999C42.7734 35.9919 46.3068 32.3333 50.6604 32.3333C55.014 32.3333 58.5474 35.9919 58.5474 40.4999Z" fill="white"/>
</svg>
