<svg width="140" height="140" viewBox="0 0 140 140" fill="none" xmlns="http://www.w3.org/2000/svg">
<rect width="140" height="140" rx="42" fill="#D2D2D2"/>
<path d="M100.139 37L87.0567 39.5974L96.1775 51.3855L102.735 50.0535L100.139 37ZM77.2702 41.5288L70.7126 42.8274L79.8666 54.5822L86.391 53.2836L77.2702 41.5288ZM60.9594 44.7255L54.4018 46.0908L63.5558 57.8456L70.0802 56.5469L60.9594 44.7255ZM44.6153 48.0555L41.3531 48.6882C39.6235 49.0339 38.1016 50.0522 37.1218 51.5194C36.1419 52.9865 35.7842 54.7828 36.127 56.5136L37.4252 63.0404L53.736 59.8103L44.6153 48.0555ZM37.4252 63.0404V96.3401C37.4252 98.1064 38.1266 99.8004 39.3751 101.049C40.6237 102.298 42.317 103 44.0827 103H97.3425C101.037 103 104 100.036 104 96.3401V63.0404H37.4252Z" fill="white"/>
</svg>
