<svg width="140" height="140" viewBox="0 0 140 140" fill="none" xmlns="http://www.w3.org/2000/svg">
<rect width="140" height="140" rx="42" fill="#F9D099"/>
<path d="M112.585 68.0045C108.608 50.0277 102.623 40.4328 93.7444 37.812C91.8781 37.2646 89.9421 36.9912 87.9972 37.0002C85.4264 37.0002 83.1875 37.6264 80.8193 38.29C77.9653 39.0905 74.7233 39.9998 69.9961 39.9998C65.269 39.9998 62.0251 39.0924 59.1655 38.2919C56.7954 37.6264 54.5584 37.0002 51.9951 37.0002C49.9839 36.9932 47.9815 37.2658 46.0454 37.8101C37.2136 40.4197 31.232 50.0108 27.1968 67.9932C22.8578 87.3442 24.9935 99.5617 33.1859 102.396C34.3089 102.792 35.4904 102.996 36.6811 103C42.2933 103 46.7936 98.3263 49.8687 94.5C53.3433 90.1694 57.4104 87.9722 69.9961 87.9722C81.2374 87.9722 85.8896 89.4963 89.9079 94.5C92.4337 97.6458 94.8207 99.8467 97.2021 101.232C100.369 103.073 103.534 103.482 106.608 102.426C111.449 100.775 114.224 96.4085 114.858 89.4457C115.34 84.1065 114.597 77.0931 112.585 68.0045ZM60.9956 66.9959H54.9953V72.995C54.9953 73.7905 54.6792 74.5535 54.1165 75.116C53.5539 75.6785 52.7908 75.9945 51.9951 75.9945C51.1994 75.9945 50.4363 75.6785 49.8737 75.116C49.311 74.5535 48.9949 73.7905 48.9949 72.995V66.9959H42.9946C42.1989 66.9959 41.4358 66.6798 40.8731 66.1173C40.3105 65.5548 39.9944 64.7918 39.9944 63.9963C39.9944 63.2008 40.3105 62.4378 40.8731 61.8753C41.4358 61.3128 42.1989 60.9967 42.9946 60.9967H48.9949V54.9976C48.9949 54.2021 49.311 53.4391 49.8737 52.8766C50.4363 52.3141 51.1994 51.998 51.9951 51.998C52.7908 51.998 53.5539 52.3141 54.1165 52.8766C54.6792 53.4391 54.9953 54.2021 54.9953 54.9976V60.9967H60.9956C61.7913 60.9967 62.5544 61.3128 63.1171 61.8753C63.6797 62.4378 63.9958 63.2008 63.9958 63.9963C63.9958 64.7918 63.6797 65.5548 63.1171 66.1173C62.5544 66.6798 61.7913 66.9959 60.9956 66.9959ZM76.7465 67.7457C76.0048 67.7457 75.2797 67.5258 74.663 67.1138C74.0463 66.7019 73.5656 66.1163 73.2818 65.4311C72.9979 64.746 72.9237 63.9921 73.0684 63.2648C73.2131 62.5375 73.5702 61.8694 74.0947 61.345C74.6192 60.8207 75.2874 60.4636 76.0149 60.3189C76.7424 60.1742 77.4964 60.2485 78.1817 60.5322C78.8669 60.816 79.4526 61.2966 79.8647 61.9132C80.2768 62.5298 80.4967 63.2547 80.4967 63.9963C80.4967 64.9907 80.1016 65.9444 79.3983 66.6476C78.695 67.3507 77.7411 67.7457 76.7465 67.7457ZM84.997 75.9945C84.2549 75.9945 83.5294 75.7744 82.9125 75.362C82.2956 74.9496 81.8149 74.3634 81.5314 73.6778C81.2478 72.9921 81.1741 72.2377 81.3195 71.5102C81.465 70.7826 81.8231 70.1145 82.3485 69.5905C82.8739 69.0665 83.543 68.7102 84.2711 68.5665C84.9992 68.4229 85.7536 68.4985 86.4387 68.7837C87.1238 69.069 87.7088 69.551 88.1198 70.1688C88.5307 70.7867 88.7491 71.5125 88.7472 72.2545C88.7447 73.2473 88.3485 74.1985 87.6455 74.8997C86.9425 75.6008 85.99 75.9946 84.997 75.9945ZM84.997 59.4969C84.2553 59.4969 83.5302 59.277 82.9135 58.8651C82.2968 58.4531 81.8161 57.8675 81.5323 57.1823C81.2484 56.4972 81.1741 55.7433 81.3188 55.016C81.4636 54.2887 81.8207 53.6206 82.3452 53.0962C82.8697 52.5719 83.5379 52.2148 84.2654 52.0701C84.9928 51.9254 85.7469 51.9997 86.4321 52.2834C87.1174 52.5672 87.7031 53.0478 88.1152 53.6644C88.5273 54.281 88.7472 55.0059 88.7472 55.7475C88.7472 56.7419 88.3521 57.6956 87.6488 58.3988C86.9455 59.1019 85.9916 59.4969 84.997 59.4969ZM93.2475 67.7457C92.5058 67.7457 91.7807 67.5258 91.164 67.1138C90.5472 66.7019 90.0666 66.1163 89.7827 65.4311C89.4989 64.746 89.4246 63.9921 89.5693 63.2648C89.714 62.5375 90.0712 61.8694 90.5957 61.345C91.1201 60.8207 91.7884 60.4636 92.5158 60.3189C93.2433 60.1742 93.9974 60.2485 94.6826 60.5322C95.3679 60.816 95.9536 61.2966 96.3657 61.9132C96.7777 62.5298 96.9977 63.2547 96.9977 63.9963C96.9977 64.9907 96.6026 65.9444 95.8993 66.6476C95.196 67.3507 94.2421 67.7457 93.2475 67.7457Z" fill="white"/>
</svg>
