<svg width="85" height="82" viewBox="0 0 85 82" fill="none" xmlns="http://www.w3.org/2000/svg">
<rect width="85" height="82" rx="15" fill="#DFD3F1"/>
<path d="M43 16C39.717 16 36.4661 16.6494 33.4329 17.9113C30.3998 19.1731 27.6438 21.0225 25.3223 23.354C20.6339 28.0628 18 34.4491 18 41.1083C18 51.7661 24.6174 60.8725 33.9328 64.5356C34.7021 64.8381 35.6317 65.2524 36.2903 64.7528C36.6235 64.5001 36.75 64.087 36.75 63.7057C36.75 61.5244 34.6711 60.039 32.5392 59.5773C29.8577 58.9965 28.7867 57.1222 28.4646 56.3925C28.3791 56.1987 28.3122 55.9982 28.2291 55.8035C27.662 54.474 27.0019 53.6265 26.4818 53.1106C25.9371 52.5702 25.1432 52.2818 24.7146 51.6452C24.3625 51.1221 24.9543 50.9658 25.3783 50.9195C25.6253 50.8926 25.8756 50.9036 26.1208 50.9438C28.0957 51.2675 29.2567 52.9672 29.5182 53.3909C29.5575 53.4546 29.5943 53.521 29.6323 53.5855C31.506 56.7613 34.443 56.387 36.1297 55.8396C36.584 55.6922 36.9125 55.1017 37.0367 54.6405C37.3408 53.5111 36.5867 51.9718 35.4521 51.6878C30.9757 50.5676 27.05 47.7061 27.05 39.8528C27.05 38.5726 27.2505 37.409 27.6247 36.3521C28.4187 34.1101 29.1421 32.6223 29.1205 30.2439C29.1039 28.4059 30.9804 26.2083 32.7107 26.8282C32.9578 26.9168 33.2219 27.0212 33.5033 27.1442C35.6727 28.0921 38.0596 28.5387 40.4137 28.2889C41.271 28.1979 42.1376 28.1524 43 28.1524C43.8624 28.1524 44.729 28.1979 45.5863 28.2889C47.9404 28.5387 50.3273 28.0921 52.4967 27.1442C52.7781 27.0212 53.0422 26.9168 53.2893 26.8282C55.0196 26.2083 56.8961 28.4059 56.8795 30.2439C56.8579 32.6223 57.5813 34.1101 58.3753 36.3521C58.7495 37.409 58.95 38.5726 58.95 39.8528C58.95 46.5465 56.1008 49.596 52.4843 51.041C50.6757 51.7636 49.25 54.8784 49.25 56.826V63.7057C49.25 64.1237 49.4021 64.5895 49.8177 64.8322C50.4717 65.2142 51.2886 64.8469 51.9942 64.5713C61.3595 60.9129 68 51.8034 68 41.1083C68 37.811 67.3534 34.546 66.097 31.4997C64.8406 28.4535 62.9991 25.6856 60.6777 23.354C58.3562 21.0225 55.6002 19.1731 52.5671 17.9113C49.5339 16.6494 46.283 16 43 16Z" fill="white"/>
</svg>
