<svg width="85" height="82" viewBox="0 0 85 82" fill="none" xmlns="http://www.w3.org/2000/svg">
<rect width="85" height="82" rx="15" fill="#DFD3F1"/>
<path d="M26.7383 16H29.2028V18.1825H31.4578V16H33.9224V22.6068H31.4578V20.3957H29.2028V22.6068H26.7406L26.7383 16ZM37.1614 18.1907H34.9929V16H41.7967V18.1907H39.6259V22.6068H37.1614V18.1907ZM42.8763 16H45.4457L47.0265 18.3214L48.6049 16H51.1743V22.6068H48.7211V19.332L47.0265 21.682H46.9832L45.2862 19.334V22.6068H42.8763V16ZM52.3997 16H54.8666V20.4243H58.3288V22.6089H52.3997V16Z" fill="white"/>
<path fill-rule="evenodd" clip-rule="evenodd" d="M26.6603 61.0637L22 25.6306H63L58.3374 61.0597L42.4772 65.0001L26.6603 61.0637ZM36.0835 41.6679L35.6416 37.2171H54.1941L54.6269 32.8724H30.3458L31.6532 46.0146H48.4564L47.8938 51.6496L42.4863 52.9604H42.4818L37.0834 51.6537L36.7372 48.189H31.8673L32.5461 55.0122L42.4772 57.4827L52.4243 55.0122L53.6361 42.8357L53.7545 41.6699H36.0835V41.6679Z" fill="white"/>
</svg>
