<svg width="85" height="82" viewBox="0 0 85 82" fill="none" xmlns="http://www.w3.org/2000/svg">
<rect width="85" height="82" rx="15" fill="#DFD3F1"/>
<path d="M36.4917 53.4156C36.4917 53.4156 34.6429 54.4907 37.8075 54.8545C41.6413 55.2918 43.6006 55.2292 47.8255 54.4295C47.8255 54.4295 48.9363 55.126 50.4874 55.7293C41.0165 59.7884 29.0526 55.4941 36.4917 53.4156ZM35.3344 48.1187C35.3344 48.1187 33.2608 49.6536 36.4277 49.9811C40.523 50.4036 43.7572 50.4382 49.3536 49.3606C49.3536 49.3606 50.1277 50.1453 51.3449 50.5745C39.8938 53.923 27.1394 50.8386 35.3344 48.1187Z" fill="white"/>
<path d="M45.0917 39.1332C47.4254 41.82 44.4785 44.2377 44.4785 44.2377C44.4785 44.2377 50.404 41.1788 47.6827 37.3482C45.1411 33.7762 43.1919 32.0011 53.7437 25.8816C53.7437 25.8816 37.181 30.0183 45.0917 39.1332Z" fill="white"/>
<path d="M57.6171 57.3335C57.6171 57.3335 58.9852 58.4607 56.1103 59.3329C50.6435 60.989 33.3569 61.4891 28.5547 59.3988C26.8285 58.648 30.0657 57.6058 31.084 57.387C32.1459 57.1567 32.7529 57.1997 32.7529 57.1997C30.8331 55.8473 20.3442 59.8552 27.4251 61.0029C46.7354 64.1345 62.6259 59.5928 57.6171 57.3335ZM37.3807 42.6305C37.3807 42.6305 28.5877 44.7191 34.267 45.4773C36.6649 45.7984 41.4451 45.7258 45.8978 45.3527C49.5367 45.0459 53.1907 44.3931 53.1907 44.3931C53.1907 44.3931 51.9076 44.9426 50.9793 45.5765C42.0501 47.9249 24.8004 46.8325 29.7664 44.4302C33.9661 42.4002 37.3807 42.6305 37.3807 42.6305ZM53.1544 51.4474C62.2316 46.7306 58.0347 42.1979 55.1053 42.8087C54.3873 42.958 54.0672 43.0874 54.0672 43.0874C54.0672 43.0874 54.3338 42.67 54.8428 42.4893C60.6379 40.4518 65.0948 48.4983 52.9721 51.6851C52.9721 51.6852 53.1126 51.5597 53.1544 51.4474Z" fill="white"/>
<path d="M47.6817 16.0001C47.6817 16.0001 52.7087 21.029 42.9138 28.7615C35.0594 34.9645 41.1228 38.5012 42.9106 42.5421C38.3258 38.4056 34.9611 34.764 37.2185 31.375C40.5315 26.3998 49.7099 23.9879 47.6817 16.0001Z" fill="white"/>
<path d="M38.2735 64.2287C46.9863 64.7865 60.3657 63.9193 60.6826 59.7966C60.6826 59.7966 60.0735 61.3596 53.4819 62.6007C46.0454 64.0001 36.8736 63.8368 31.4336 62.9399C31.4337 62.9399 32.5471 63.8616 38.2735 64.2287Z" fill="white"/>
</svg>
