<svg width="85" height="82" viewBox="0 0 85 82" fill="none" xmlns="http://www.w3.org/2000/svg">
<rect width="85" height="82" rx="15" fill="#DFD3F1"/>
<path d="M18 21C18 18.2386 20.2386 16 23 16H62C64.7614 16 67 18.2386 67 21V60C67 62.7614 64.7614 65 62 65H23C20.2386 65 18 62.7614 18 60V21ZM32.6401 55.8813C31.6382 56.4839 31.2231 57.7813 31.9788 58.6734C33.2166 60.1348 35.0929 61.1617 37.7906 61.1617C41.8739 61.1617 44.6778 58.9839 44.6778 54.22V40.7994C44.6778 39.5215 43.6418 38.4856 42.3639 38.4856C41.086 38.4856 40.05 39.5215 40.05 40.7994V54.1111C40.05 56.4522 39.0972 57.0511 37.6 57.0511C36.9315 57.0511 36.429 56.8559 36.0159 56.5338C35.0092 55.7486 33.7341 55.2233 32.6401 55.8813ZM48.9971 55.3843C47.9642 55.9831 47.5569 57.3144 48.3462 58.2103C49.8935 59.9666 52.2759 61.1617 55.5667 61.1617C59.9222 61.1617 63.1889 58.9022 63.1889 54.7372C63.1889 50.8989 60.9839 49.1839 57.0639 47.4961L55.9206 47.0061C53.9333 46.1622 53.0894 45.5906 53.0894 44.2294C53.0894 43.1133 53.9333 42.2422 55.2944 42.2422C55.8416 42.2422 56.3124 42.3425 56.7327 42.5629C57.8283 43.1374 59.142 43.6448 60.1725 42.9604C61.1038 42.3419 61.4266 41.0713 60.6536 40.2636C59.278 38.8264 57.5158 38.2406 55.2944 38.2406C51.1839 38.2406 48.5433 40.8539 48.5433 44.3111C48.5433 48.0678 50.7483 49.8372 54.0694 51.2528L55.2128 51.7428C57.3361 52.6683 58.5883 53.24 58.5883 54.8189C58.5883 56.1256 57.3633 57.0783 55.4578 57.0783C54.1124 57.0783 53.1049 56.6633 52.303 55.9827C51.3671 55.1884 50.0591 54.7687 48.9971 55.3843Z" fill="white"/>
</svg>
