<svg width="140" height="140" viewBox="0 0 140 140" fill="none" xmlns="http://www.w3.org/2000/svg">
<rect width="140" height="140" rx="42" fill="#DBBEFF"/>
<path d="M64.2632 78.25C68.4211 78.25 72.7868 78.91 77.5684 80.065C74.2005 83.6537 72.5789 87.8613 72.5789 92.6875C72.5789 96.3587 73.6184 99.8237 75.8221 103H31V94.75C31 89.8413 34.7837 85.8812 42.3926 82.87C50.0016 79.8175 57.3195 78.25 64.2632 78.25ZM64.2632 70C59.7726 70 55.9474 68.3912 52.5379 65.1737C49.2116 61.9562 47.6316 58.0788 47.6316 53.5C47.6316 49.045 49.2116 45.25 52.5379 41.8675C55.9474 38.5675 59.7726 37 64.2632 37C68.8784 37 72.7868 38.5675 76.03 41.8675C79.2732 45.25 80.8947 49.045 80.8947 53.5C80.8947 58.0788 79.2732 61.9562 76.03 65.1737C72.7868 68.3912 68.8784 70 64.2632 70ZM95.4474 61.75H110V70H101.684V92.6875C101.684 95.4225 100.589 98.0456 98.6397 99.9795C96.6903 101.914 94.0463 103 91.2895 103C88.5326 103 85.8887 101.914 83.9393 99.9795C81.9899 98.0456 80.8947 95.4225 80.8947 92.6875C80.8947 89.9525 81.9899 87.3294 83.9393 85.3955C85.8887 83.4615 88.5326 82.375 91.2895 82.375C92.7863 82.375 94.1584 82.6637 95.4474 83.2412V61.75Z" fill="white"/>
</svg>
