<svg width="85" height="82" viewBox="0 0 85 82" fill="none" xmlns="http://www.w3.org/2000/svg">
<rect width="85" height="82" rx="15" fill="#DFD3F1"/>
<path d="M46.7942 45.2564C46.7961 45.2576 46.796 45.2604 46.794 45.2613C45.9569 45.6481 45.0383 46.1526 43.2029 47.165C42.5689 47.5234 41.909 47.8818 41.2847 48.2231C41.1748 48.2832 41.043 48.2591 40.9562 48.1687C37.3186 44.2624 30.5907 41.5034 30.8766 36.257C30.9829 34.3459 31.6365 29.329 43.7973 23.2365C53.8055 18.2792 61.7691 19.6525 63.1443 22.6987C65.1209 27.0413 58.8758 35.1219 48.5399 36.2938C47.396 36.527 46.2145 36.4989 45.0829 36.2114C43.9512 35.924 42.8983 35.3846 42.002 34.6332C41.4547 34.0359 41.3728 34.0008 41.1706 34.1199C40.8377 34.2951 41.0521 34.8364 41.1706 35.1465C41.5649 35.8639 42.0983 36.4945 42.7392 37.0012C43.3802 37.5079 44.1157 37.8803 44.9023 38.0963C48.9698 38.9799 53.2106 38.5577 57.0265 36.8894C63.2907 34.4528 68.1815 27.6789 66.7488 21.9998C65.3109 16.2419 55.8012 14.343 46.8039 17.5557C41.1693 19.464 35.9635 22.4681 31.4831 26.3966C26.5261 31.0562 25.7418 35.1062 26.0625 36.8018C27.173 42.5964 34.8643 46.4438 38.3928 49.3123C38.5878 49.4708 38.5525 49.7687 38.3348 49.8942C36.6824 50.7192 30.3833 54.0282 28.8129 57.5281C27.0298 61.494 29.0987 64.3371 30.4652 64.7189C32.5246 65.2147 34.6865 65.0517 36.6492 64.2528C38.6119 63.4539 40.2773 62.0589 41.4129 60.2626C42.3772 58.773 42.9694 57.0715 43.139 55.3026C43.2606 54.0346 43.1625 52.7588 42.8528 51.5312C42.6344 50.6656 42.8535 49.6983 43.6352 49.267C44.4788 48.7661 45.2823 48.2721 45.9952 47.8902C48.436 46.7412 51.0997 46.1495 53.795 46.1577C59.4527 46.8269 60.57 50.3741 60.3556 51.8683C60.2553 52.3985 60.0432 52.9009 59.7335 53.3417C59.4238 53.7826 59.0238 54.1516 58.5603 54.4241C58.1681 54.6746 58.0374 54.7587 58.0723 54.9374C58.1538 55.3926 58.8719 55.0864 59.2852 54.8789C59.8695 54.5856 60.3845 54.1643 60.7905 53.6428C61.3399 52.9372 61.664 52.0811 61.7203 51.1869C61.8946 47.6835 58.5708 43.8402 52.6865 43.8753C50.9245 43.8783 49.1802 44.2276 47.5517 44.9035C47.2918 45.0115 47.0394 45.1275 46.7944 45.2516C46.7925 45.2526 46.7924 45.2553 46.7942 45.2564ZM38.3888 58.9908C36.5099 61.0456 33.8954 61.8216 32.766 61.1647C31.5459 60.464 32.0287 57.4248 34.3347 55.2509C35.7004 54.0142 37.1765 52.9065 38.7444 51.9419C39.018 51.7667 39.4224 51.5355 39.9087 51.2412L40.0394 51.1694C40.1837 51.081 40.3726 51.1535 40.4141 51.3175C40.7401 52.6073 40.7476 53.9595 40.4337 55.2559C40.0934 56.661 39.3877 57.95 38.3888 58.9908Z" fill="white"/>
</svg>
