<svg width="85" height="82" viewBox="0 0 85 82" fill="none" xmlns="http://www.w3.org/2000/svg">
<rect width="85" height="82" rx="15" fill="#DFD3F1"/>
<path d="M32.064 46.2165L33.7051 50.4292C34.0738 51.3857 34.2276 52.0534 34.166 52.434C35.0635 50.5322 35.6906 48.4596 36.0474 46.2165H38.0208C37.1723 49.8684 36.0531 52.5222 34.664 54.1777C33.5817 55.4534 32.396 56.0912 31.1048 56.0912C30.7606 56.0912 30.3362 56.009 29.8326 55.8456V54.9653C30.0786 54.9938 30.3673 55.0091 30.6993 55.0091C31.3017 55.0091 31.7871 54.877 32.1565 54.6134C32.5987 54.2922 32.8201 53.9313 32.8201 53.5312C32.8201 53.258 32.6474 52.6973 32.3037 51.8492L30.0171 46.2165H32.064ZM19.504 43.6272L22.5099 50.883H22.5284L25.5527 43.6272H28.0237C28.5647 47.2255 28.8843 50.5179 28.9824 53.5022H26.8992C26.8259 50.7125 26.6228 48.0893 26.2908 45.632H26.2727L23.1004 53.5022H21.5139L18.3608 45.632H18.3423C18.1083 47.9919 17.9611 50.6151 17.8997 53.5022H16C16.1228 49.991 16.43 46.6996 16.9217 43.6272H19.504Z" fill="white"/>
<path d="M53.1773 43.4806C56.4107 43.4806 58.0274 45.1148 58.0274 48.3818C58.0274 50.1572 57.5412 51.4981 56.5697 52.4041C56.3946 52.5696 56.2011 52.7126 55.9973 52.8452L58.2855 53.7402L58.2833 53.7401L57.4709 54.8501L54.491 53.4746C53.9971 53.5903 53.4536 53.6481 52.8614 53.6481C51.2738 53.6481 50.0879 53.2821 49.3039 52.5509C48.4432 51.742 48.0131 50.4686 48.0131 48.7328C48.0131 46.9675 48.4985 45.6316 49.4703 44.7245C50.3554 43.8948 51.5913 43.4806 53.1773 43.4806ZM43.2759 43.4949C44.4315 43.4949 45.4823 43.7396 46.4288 44.2271L45.948 45.0746C45.1382 44.8023 44.3396 44.6655 43.5522 44.6655C42.9133 44.6655 42.421 44.7872 42.0778 45.032C41.7327 45.2746 41.5192 45.5869 41.5192 45.9675C41.5192 46.5525 42.0459 47.0597 43.0184 47.4883C43.337 47.626 43.6545 47.7654 43.9709 47.9064L44.0435 47.9387L44.0799 47.9549L44.1525 47.9872L44.1888 48.0034L44.2614 48.0357C44.9976 48.3641 45.6903 48.6775 45.6903 48.6775C46.6627 49.2236 47.1474 49.8059 47.1474 50.7649C47.1474 51.6024 46.7595 52.2898 45.9862 52.8278C45.2124 53.3633 44.1728 53.6318 42.8709 53.6318C41.6532 53.6318 40.4732 53.3228 39.3301 52.7098L39.8648 51.8615C40.8485 52.2516 41.7387 52.4465 42.538 52.4465C43.2877 52.4465 43.8745 52.314 44.299 52.0525C44.7227 51.7891 44.9766 51.4217 44.9766 50.9559C44.9766 50.3695 44.461 49.8683 43.5153 49.4478C43.2193 49.3184 42.9241 49.1878 42.6299 49.0559L42.5574 49.0234C42.4243 48.9639 42.2903 48.9037 42.159 48.8447L42.0878 48.8127C41.4492 48.5253 40.897 48.2742 40.897 48.2742C39.9516 47.7271 39.4775 47.1401 39.4775 46.1728C39.4775 45.3728 39.8311 44.7263 40.5371 44.2344C41.2448 43.7414 42.1578 43.4949 43.2759 43.4949ZM61.8274 43.6271V52.2873H65.7548V53.5021H59.8355V43.6271H61.8274ZM67.9372 52.2911V52.4964H67.5054V53.501H67.1753V52.4964H66.7267V52.2911H67.9373H67.9372ZM68.7345 52.2911L69.1491 53.1158L69.53 52.2911H69.9979V53.501H69.6868V52.5802L69.2533 53.501H69.029L68.5948 52.5802H68.5781V53.501H68.2837V52.2911H68.7346H68.7345ZM52.974 44.695C51.0686 44.695 50.1153 45.9391 50.1153 48.4256C50.1153 49.85 50.3679 50.8828 50.8722 51.5266C51.3392 52.1224 52.0706 52.4197 53.0666 52.4197C54.972 52.4197 55.9251 51.1659 55.9251 48.6595C55.9251 47.255 55.6725 46.231 55.1689 45.587C54.7013 44.9925 53.9702 44.695 52.9741 44.695H52.974Z" fill="white"/>
<path d="M47.9797 27.6119C48.6118 26.3831 50.8219 27.3137 51.6796 27.7429C51.8898 27.8503 52.1309 28.0772 52.3719 28.161C52.7479 28.1727 53.1235 28.196 53.5002 28.2084C54.2066 28.3397 54.8683 28.4471 55.425 28.6979C58.0119 29.9032 59.6959 31.1315 61.2458 33.1603C61.577 33.59 61.7425 34.055 62.013 34.52C62.3885 35.2132 62.8103 35.9408 63.2461 36.5962C63.4413 36.907 63.5922 37.2525 63.8631 37.5149C63.9689 37.6349 64.2694 37.6703 64.449 37.742C64.9456 37.9453 65.5471 38.0997 66.0142 38.3383C66.8863 38.7686 67.7295 39.2812 68.4961 39.8061C68.7818 40.0087 68.9765 40.2955 69.2487 40.5097V40.6179C69.0071 40.6765 68.7663 40.7366 68.5253 40.7848C67.9989 40.8917 67.5326 40.8675 67.0219 40.9746C66.7064 41.047 66.3145 41.1426 65.9836 41.1669L66.0142 41.1912C66.2089 41.6314 67.2623 41.9893 67.7441 42.2526C68.3292 42.5867 68.8714 42.9919 69.3079 43.4572C69.4586 43.576 69.6093 43.684 69.7593 43.8024C69.8641 43.9224 69.8936 44.0776 69.9997 44.1846V44.2208C69.8822 44.188 69.7978 44.1255 69.7177 44.06L69.6699 44.0206C69.6222 43.9813 69.574 43.9428 69.519 43.911C69.187 43.7316 68.8573 43.517 68.5253 43.3502C67.9545 43.0637 67.2924 42.8974 66.7064 42.6097C66.375 42.4428 66.0591 42.2526 65.7432 42.0615C65.4569 41.894 65.1415 41.5725 64.9616 41.3338C64.8556 41.202 64.841 41.047 64.72 40.9517C64.7416 40.7924 64.926 40.7451 65.1122 40.7062L65.155 40.6972C65.2192 40.6841 65.2821 40.6709 65.337 40.6534C66.1189 40.3908 67.0511 40.2955 68.255 40.3193C68.2096 40.0802 67.4574 39.7822 67.2173 39.639C66.7353 39.3642 66.2249 39.0774 65.7136 38.8272C65.4426 38.6962 64.9757 38.6006 64.6756 38.4935C64.2694 38.3622 63.3667 38.231 63.1416 37.9808C62.7593 37.5864 62.4846 37.1161 62.218 36.641L62.1455 36.5113C62.1213 36.4681 62.097 36.4249 62.0727 36.3817C61.7575 35.8095 61.366 35.213 61.0502 34.6272C60.885 34.3414 60.8092 34.0906 60.6283 33.8165C59.5307 32.1344 57.9061 30.7262 55.9365 29.7358C55.2892 29.4136 54.5675 29.1153 53.7708 28.9127C53.3193 28.8048 52.7774 28.8644 52.2963 28.7817H51.9797C51.7095 28.7214 51.4839 28.4948 51.2731 28.3753C50.8074 28.1251 50.3411 27.9572 49.7842 27.7787C49.5891 27.7071 49.0319 27.5404 48.8374 27.6716C48.7169 27.6956 48.6559 27.7315 48.6262 27.8272C48.5064 27.9699 48.6118 28.1848 48.6863 28.3164C48.9123 28.6977 49.2278 28.9243 49.5143 29.2466C49.7691 29.5324 50.0856 29.8546 50.2663 30.1654C50.6561 30.8333 50.8376 31.5734 51.1988 32.2412C51.3328 32.4924 51.5447 32.7782 51.7397 33.0047C51.9049 33.1846 52.2054 33.3146 52.2963 33.5422C52.4775 33.7808 52.0251 34.5683 51.9203 34.8183C51.5285 35.7969 51.6045 37.1571 52.0557 38.0052L52.0797 38.05L52.1038 38.0953C52.2685 38.4059 52.4448 38.7404 52.8829 38.8273C52.913 38.8036 52.8829 38.816 52.9427 38.8036C53.0487 38.1471 53.0785 37.5149 53.3645 37.0012C53.5298 36.68 53.8598 36.453 54.086 36.1908C54.2369 36.2622 54.2369 36.4776 54.3267 36.6201C54.5225 36.9898 54.7327 37.395 54.974 37.7658C55.4693 38.5293 56.0266 39.2695 56.658 39.9373C56.8695 40.1759 57.1695 40.4385 57.4402 40.6534C57.5607 40.7365 57.6957 40.7846 57.7863 40.8917H57.8159V40.9277C57.3647 40.7961 57.0786 40.4268 56.7188 40.2112C56.0412 39.8059 55.2299 39.1973 54.7628 38.6133C54.5675 38.278 54.3564 37.9567 54.1458 37.6231V37.599C54.0559 37.6943 54.086 37.7889 54.041 37.9331C53.8457 38.5293 53.9961 39.2094 53.3193 39.4238C52.5521 39.675 51.9798 39.0186 51.7397 38.7203C50.9723 37.7301 50.7621 36.0598 51.3032 34.7115C51.4235 34.413 51.4398 34.055 51.6497 33.8167C51.6044 33.6013 51.3945 33.5423 51.2731 33.4103C51.0626 33.1847 50.8823 32.9219 50.7175 32.6713C50.4009 32.1818 50.1756 31.597 49.9352 31.0721C49.8295 30.8577 49.7993 30.6425 49.6939 30.4396C49.5142 30.1298 49.1829 29.8191 48.9273 29.5451C48.5813 29.1512 47.5734 28.3879 47.9797 27.6119ZM52.9127 29.9495C52.9529 29.9814 53.0014 30.0093 53.0516 30.0367L53.1121 30.0696C53.1928 30.1138 53.271 30.1604 53.3189 30.2238C53.3948 30.3077 53.4089 30.3906 53.4998 30.4747C53.4998 30.7615 53.3948 30.9521 53.1827 31.071C53.1827 31.071 53.1683 31.0835 53.1534 31.0952C53.0331 30.904 52.9278 30.7138 52.8067 30.5228C52.6576 30.3561 52.4467 30.2239 52.3252 30.0334H52.296V30.0094C52.4775 29.974 52.6576 29.9495 52.9127 29.9495Z" fill="white"/>
</svg>
