<svg width="31" height="26" viewBox="0 0 31 26" fill="none" xmlns="http://www.w3.org/2000/svg">
<path d="M3.25054 25.2847C2.67703 25.5105 2.1322 25.4608 1.61604 25.1357C1.09988 24.8117 0.841797 24.3393 0.841797 23.7184V17.4108C0.841797 17.0157 0.956499 16.6629 1.1859 16.3525C1.41531 16.0421 1.73074 15.8445 2.1322 15.7598L14.6061 12.7119L2.1322 9.66393C1.73074 9.57927 1.41531 9.38172 1.1859 9.07128C0.956499 8.76084 0.841797 8.40807 0.841797 8.01296V1.70539C0.841797 1.08451 1.09988 0.611514 1.61604 0.286399C2.1322 -0.0375873 2.67703 -0.0866939 3.25054 0.13908L29.7467 11.1456C30.4636 11.456 30.8221 11.9781 30.8221 12.7119C30.8221 13.4457 30.4636 13.9678 29.7467 14.2782L3.25054 25.2847Z" fill="white"/>
</svg>
