<svg width="44" height="44" viewBox="0 0 44 44" fill="none" xmlns="http://www.w3.org/2000/svg">
<path d="M33.6875 0H10.3125C4.61706 0 0 4.61706 0 10.3125V33.6875C0 39.3829 4.61706 44 10.3125 44H33.6875C39.3829 44 44 39.3829 44 33.6875V10.3125C44 4.61706 39.3829 0 33.6875 0Z" fill="#2AA4EE"/>
<path d="M9.2388 17.6431L9.7307 23.1332H22.0165V17.6431H9.2388ZM22.0163 6.53125H8.25L8.74912 12.0213H22.0163V6.53125ZM22.0163 37.6133V31.9014L21.9923 31.9077L15.878 30.2569L15.4871 25.8782H9.97597L10.7451 34.4984L21.9911 37.6203L22.0163 37.6133Z" fill="#EBEBEB"/>
<path d="M28.7565 23.1332L28.1191 30.2533L21.9961 31.906V37.6176L33.251 34.4984L33.3335 33.5708L34.6236 19.1175L34.7575 17.6431L35.7487 6.53125H21.9961V12.0213H29.732L29.2325 17.6431H21.9961V23.1332H28.7565Z" fill="white"/>
</svg>
