<svg width="44" height="44" viewBox="0 0 44 44" fill="none" xmlns="http://www.w3.org/2000/svg">
<path d="M33.6875 0H10.3125C4.61706 0 0 4.61706 0 10.3125V33.6875C0 39.3829 4.61706 44 10.3125 44H33.6875C39.3829 44 44 39.3829 44 33.6875V10.3125C44 4.61706 39.3829 0 33.6875 0Z" fill="#FD632F"/>
<path d="M8.25 6.53125L9.72984 23.1332H28.7581L28.1196 30.254L21.993 31.9105L15.8778 30.2564L15.4689 25.6841H9.95844L10.7465 34.4981L21.9918 37.6214L33.2513 34.4981L34.7609 17.6438H14.751L14.2486 12.0218H35.2583L35.75 6.53125H8.25Z" fill="white"/>
<path d="M22 6.53125H8.25L9.72984 23.1332H22V17.6438H14.751L14.2486 12.0218H22V6.53125ZM22 31.9081L21.993 31.9105L15.8778 30.2564L15.4689 25.6841H9.95844L10.7465 34.4981L21.9918 37.6214L22.0002 37.619V31.9081H22Z" fill="#EBEBEB"/>
</svg>
