<svg width="44" height="44" viewBox="0 0 44 44" fill="none" xmlns="http://www.w3.org/2000/svg">
<path d="M0 9.42857C0 6.92796 0.993365 4.52977 2.76156 2.76156C4.52977 0.993365 6.92796 0 9.42857 0H34.5714C37.072 0 39.4702 0.993365 41.2384 2.76156C43.0066 4.52977 44 6.92796 44 9.42857V34.5714C44 37.072 43.0066 39.4702 41.2384 41.2384C39.4702 43.0066 37.072 44 34.5714 44H9.42857C6.92796 44 4.52977 43.0066 2.76156 41.2384C0.993365 39.4702 0 37.072 0 34.5714V9.42857ZM22.7857 14.1429C22.1606 14.1429 21.561 14.3912 21.119 14.8332C20.6769 15.2753 20.4286 15.8748 20.4286 16.5V32.2143C20.4286 32.4227 20.3458 32.6225 20.1984 32.7699C20.0511 32.9172 19.8512 33 19.6429 33H16.5C15.8748 33 15.2753 33.2483 14.8332 33.6904C14.3912 34.1324 14.1429 34.732 14.1429 35.3571C14.1429 35.9823 14.3912 36.5818 14.8332 37.0239C15.2753 37.4659 15.8748 37.7143 16.5 37.7143H19.6429C21.1015 37.7143 22.5005 37.1348 23.5319 36.1034C24.5634 35.0719 25.1429 33.673 25.1429 32.2143V16.5C25.1429 15.8748 24.8945 15.2753 24.4525 14.8332C24.0104 14.3912 23.4109 14.1429 22.7857 14.1429ZM26.7143 19.6429V22.7857C26.7143 25.8217 29.1783 28.2857 32.2143 28.2857H33.7857C33.9941 28.2857 34.1939 28.3685 34.3413 28.5158C34.4886 28.6632 34.5714 28.863 34.5714 29.0714V32.2143C34.5714 32.4227 34.4886 32.6225 34.3413 32.7699C34.1939 32.9172 33.9941 33 33.7857 33H29.0714C28.4463 33 27.8467 33.2483 27.4047 33.6904C26.9626 34.1324 26.7143 34.732 26.7143 35.3571C26.7143 35.9823 26.9626 36.5818 27.4047 37.0239C27.8467 37.4659 28.4463 37.7143 29.0714 37.7143H33.7857C35.2444 37.7143 36.6434 37.1348 37.6748 36.1034C38.7063 35.0719 39.2857 33.673 39.2857 32.2143V29.0714C39.2857 27.6127 38.7063 26.2138 37.6748 25.1823C36.6434 24.1509 35.2444 23.5714 33.7857 23.5714H32.2143C32.0059 23.5714 31.8061 23.4886 31.6587 23.3413C31.5114 23.1939 31.4286 22.9941 31.4286 22.7857V19.6429C31.4286 19.4345 31.5114 19.2346 31.6587 19.0873C31.8061 18.9399 32.0059 18.8571 32.2143 18.8571H36.9286C37.5537 18.8571 38.1533 18.6088 38.5953 18.1667C39.0374 17.7247 39.2857 17.1252 39.2857 16.5C39.2857 15.8748 39.0374 15.2753 38.5953 14.8332C38.1533 14.3912 37.5537 14.1429 36.9286 14.1429H32.2143C30.7556 14.1429 29.3566 14.7223 28.3252 15.7538C27.2937 16.7852 26.7143 18.1842 26.7143 19.6429Z" fill="#FFD231"/>
</svg>
