<svg width="623" height="659" viewBox="0 0 623 659" fill="none" xmlns="http://www.w3.org/2000/svg">
<path fill-rule="evenodd" clip-rule="evenodd" d="M240.53 92.3573C314.903 102.417 318.018 182.654 381.44 211.249C443.959 239.436 547.029 210.874 593.187 251.356C637.709 290.402 627.745 353.582 593.587 397.306C561.014 438.999 479.468 444.762 421.894 470.614C382.862 488.141 348.37 506.806 309.747 524.758C251.838 551.675 207.393 609.044 138.192 602.481C71.9534 596.199 41.1641 539.302 15.2593 496.829C-6.05927 461.875 -0.837756 423.203 5.90001 385.573C11.255 355.666 42.8409 332.115 50.073 302.396C61.0885 257.13 23.6407 206.554 58.9367 167.629C97.141 125.497 169.78 82.7882 240.53 92.3573Z" fill="#F5F5F5"/>
<path d="M396.866 571.65L387.627 597.755L290.479 571.49L304.114 532.96L396.866 571.65Z" fill="#F7D1AE"/>
<path d="M422.855 574.423L392.793 659L391.803 658.589C383.726 655.235 377.213 648.549 373.696 640.004C370.179 631.459 369.946 621.753 373.048 613.022L373.049 613.02L391.41 561.363L422.855 574.423Z" fill="#1E1E1E"/>
<path d="M248.737 243.6L206.49 247.919L204.395 385.194C204.955 391.922 207.905 398.142 212.613 402.523C217.322 406.905 223.414 409.098 229.585 408.634L256.37 406.619L248.737 243.6Z" fill="#FED291"/>
<path d="M398.667 236.905L369.367 236.499L367.631 399.79C374.106 400.023 380.555 398.815 386.578 396.24C392.601 393.665 398.067 389.78 402.635 384.826C407.204 379.872 410.777 373.955 413.132 367.446C415.487 360.937 416.573 353.974 416.323 346.991L398.667 236.905Z" fill="#FED291"/>
<path d="M230.131 457.021C229.442 461.749 228.44 466.418 227.135 470.992C225.665 475.469 223.396 479.609 222.052 484.131C217.768 498.548 223.707 514.623 233.192 525.751C241.418 535.363 252.035 542.191 263.764 545.413C272.321 547.744 281.218 548.08 290.036 548.403C314.455 549.3 339.502 550.103 362.64 541.603C369.95 538.852 377.011 535.377 383.733 531.224C385.856 530.129 387.725 528.534 389.206 526.556C390.971 523.835 391.197 520.306 391.181 516.981C391.13 505.769 389.031 494.614 389.529 483.415C389.805 477.212 390.877 471.014 390.349 464.83C389.619 457.806 386.903 451.199 382.572 445.912C378.241 440.625 372.508 436.917 366.157 435.295C359.593 433.769 352.785 434.601 346.102 435.297C328.756 437.102 311.336 437.946 293.911 437.824C276.106 437.701 258.411 434.757 240.695 434.45C235.456 434.359 235.562 436.108 233.894 441.6C232.358 446.655 231.101 451.804 230.131 457.021Z" fill="#1E1E1E"/>
<path d="M160.246 448.582C155.455 447.279 150.518 446.712 145.581 446.896C140.394 447.206 135.327 448.707 130.717 451.3C126.108 453.892 122.061 457.516 118.847 461.932C115.632 466.347 113.324 471.452 112.074 476.907C110.825 482.362 110.663 488.042 111.6 493.57C112.797 499.558 114.752 505.338 117.411 510.747C121.301 519.285 125.965 527.803 133.165 533.274C137.377 536.475 142.251 538.47 147.068 540.433L184.988 555.886C190.566 558.159 196.146 560.433 201.779 562.541C230.082 573.123 259.59 579.469 289.483 581.401C298.589 581.988 307.832 582.151 316.714 579.909C318.822 579.377 321.071 578.583 322.291 576.65C323.014 575.287 323.44 573.765 323.537 572.198L325.871 554.527C326.199 552.039 326.516 549.42 325.673 547.078C324.604 544.108 321.924 542.24 319.37 540.653C294.44 525.164 265.331 516.619 244.347 495.361C239.408 490.356 235.274 482.423 229.272 479.024C222.466 475.169 214.45 472.969 207.415 469.417C192.035 461.651 176.914 452.727 160.246 448.582Z" fill="#1E1E1E"/>
<path opacity="0.1" d="M197.817 472.186C211.216 476.687 267.788 507.865 277.484 518.751C276.185 519.253 232.086 492.763 230.763 492.338C218.735 488.469 206.64 484.574 195.217 478.911C192.919 477.772 180.289 472.418 180.861 469.31C181.506 465.804 195.438 471.388 197.817 472.186Z" fill="black"/>
<path d="M278.785 197.516L242.769 227.213C242.769 227.213 204.765 228.505 206.049 254.887C207.334 281.269 222.544 406.179 222.544 406.179L225.844 449.157L288.441 468.527C322.262 478.992 357.996 479.824 392.2 470.942L384.761 427.824C384.761 427.824 414.882 232.003 396.736 223.381C378.59 214.76 367.248 217.223 367.248 217.223L344.503 195.669L278.785 197.516Z" fill="#FED291"/>
<path d="M385.496 149.453C385.496 187.849 352.59 182.041 311.999 182.041C271.408 182.041 238.502 187.849 238.502 149.453C238.502 111.058 254.576 43 311.999 43C371.401 43 385.496 111.058 385.496 149.453Z" fill="#1E1E1E"/>
<path d="M350.281 162.748C369.565 141.861 369.565 107.996 350.281 87.108C330.997 66.2204 299.731 66.2204 280.447 87.108C261.162 107.996 261.162 141.861 280.447 162.748C299.731 183.636 330.997 183.636 350.281 162.748Z" fill="#F7D1AE"/>
<path d="M254.746 123.772H274.262L282.871 97.5537L284.593 123.772H293.92L298.943 108.478L299.947 123.772H369.255C369.255 108.706 363.752 94.2571 353.957 83.6037C344.161 72.9503 330.876 66.9653 317.023 66.9653H306.978C293.125 66.9653 279.84 72.9503 270.045 83.6037C260.249 94.2571 254.746 108.706 254.746 123.772Z" fill="#1E1E1E"/>
<path d="M361.946 203.657H262.867V333.248H361.946V203.657Z" fill="#1E1E1E"/>
<path d="M268.551 570.404L277.791 596.868L374.939 570.243L361.302 531.185L268.551 570.404Z" fill="#F7D1AE"/>
<path d="M274.007 560.476L292.368 612.132L292.369 612.134C295.471 620.865 295.238 630.571 291.721 639.116C288.204 647.662 281.691 654.347 273.614 657.702L272.624 658.112L242.562 573.535L274.007 560.476Z" fill="#1E1E1E"/>
<path d="M463.631 438.423C471.465 436.297 479.585 435.697 487.613 436.65C494.024 437.414 500.63 439.345 505.311 444.147C511.008 449.993 512.839 459.032 512.992 467.527C513.242 484.446 508.057 500.934 498.322 514.176C495.945 517.525 493.118 520.47 489.935 522.913C486.501 525.238 482.842 527.146 479.023 528.604L394.317 564.762C372.033 574.274 349.67 583.814 326.427 590.085C325.163 590.745 323.709 590.835 322.384 590.335C321.059 589.834 319.972 588.785 319.362 587.417C319.343 587.376 319.325 587.334 319.307 587.291C311.886 575.819 305.659 563.493 300.742 550.539C300.509 550.231 300.348 549.867 300.273 549.477C300.198 549.088 300.21 548.685 300.31 548.301C300.409 547.918 300.592 547.567 300.843 547.277C301.094 546.986 301.407 546.766 301.754 546.634L361.666 509.379C365.958 506.71 370.297 504.004 373.861 500.286C376.45 497.57 378.57 494.376 380.121 490.853C381.363 488.046 381.479 481.421 383.066 479.346C384.619 477.315 389.932 477.153 392.386 476.354C395.846 475.206 399.235 473.82 402.532 472.203C415.934 465.714 427.868 456.287 440.716 448.689C447.922 444.23 455.622 440.781 463.631 438.423Z" fill="#1E1E1E"/>
<path opacity="0.1" d="M429.263 466.372C419.015 474.72 405.746 482.393 395.59 490.961C392.123 493.885 334.339 529.12 333.521 533.799C342.997 535.531 403.357 489.733 411.993 485.163C420.629 480.594 428.285 474.149 435.871 467.752C437.804 466.122 445.997 461.221 440.447 459.4C437.321 458.374 431.571 464.703 429.263 466.372Z" fill="black"/>
<path opacity="0.17" d="M228.758 285.941L230.132 274.666C230.132 274.666 281.397 278.643 273.387 292.023C265.377 305.403 245.923 306.619 245.923 306.619L228.758 285.941Z" fill="#2F2E41"/>
<path d="M267.088 236.628C270.007 236.975 272.818 238.015 275.32 239.674C277.822 241.332 279.953 243.568 281.56 246.221C283.025 248.642 284.02 251.358 284.488 254.205C284.956 257.052 284.886 259.972 284.282 262.788C283.678 265.605 282.554 268.262 280.975 270.598C279.397 272.933 277.397 274.901 275.097 276.381C274.253 276.919 273.373 277.386 272.463 277.779L241.145 381.199C240.238 383.24 238.965 385.067 237.402 386.575C235.838 388.083 234.014 389.243 232.034 389.987C230.054 390.731 227.957 391.046 225.863 390.912C223.77 390.779 221.722 390.2 219.837 389.209C217.952 388.219 216.267 386.835 214.878 385.139C213.49 383.443 212.426 381.467 211.747 379.325C211.068 377.183 210.789 374.918 210.924 372.659C211.059 370.4 211.606 368.192 212.534 366.162L245.84 263.89C244.933 260.506 244.812 256.933 245.489 253.487C246.166 250.041 247.619 246.828 249.719 244.132C251.82 241.437 254.504 239.342 257.534 238.033C260.563 236.724 263.845 236.241 267.088 236.628Z" fill="#F7D1AE"/>
<path d="M229.551 275.554C229.551 275.554 247.49 308.733 273.425 292.145L248.291 396.268H227.114L205.207 391.84L211.341 348.82L229.551 275.554Z" fill="#FED291"/>
<path d="M357.323 298.037L342.455 275.95C342.455 275.95 349.601 253.041 377.309 261.419C377.309 261.419 394.941 304.123 357.323 298.037Z" fill="#E5E5E5"/>
<path opacity="0.17" d="M357.323 298.037L342.455 275.95C342.455 275.95 349.601 253.041 377.309 261.419C377.309 261.419 394.941 304.123 357.323 298.037Z" fill="#2F2E41"/>
<path d="M361.046 221.679C365.335 223.832 368.765 227.574 370.714 232.227C372.662 236.879 372.999 242.132 371.662 247.03L404.968 349.297C405.896 351.327 406.444 353.535 406.579 355.794C406.714 358.053 406.434 360.318 405.756 362.46C405.077 364.602 404.013 366.578 402.625 368.274C401.236 369.971 399.551 371.354 397.666 372.345C395.78 373.336 393.732 373.914 391.639 374.048C389.546 374.181 387.449 373.867 385.469 373.122C383.488 372.378 381.664 371.218 380.1 369.71C378.537 368.202 377.265 366.375 376.357 364.334L345.039 260.918C344.13 260.526 343.249 260.058 342.406 259.521C340.105 258.04 338.106 256.073 336.527 253.737C334.949 251.401 333.824 248.745 333.22 245.928C332.617 243.111 332.547 240.192 333.014 237.345C333.482 234.498 334.478 231.783 335.942 229.362C337.549 226.709 339.68 224.473 342.183 222.814C344.685 221.156 347.496 220.116 350.415 219.769C354.054 219.323 357.736 219.985 361.046 221.679Z" fill="#F7D1AE"/>
<path d="M342.455 275.865C342.455 275.865 366.848 291.952 377.113 261.352L411.485 359.714L401.272 379.128L399.795 379.261C393.702 379.814 387.576 378.75 381.945 376.162C376.313 373.574 371.344 369.539 367.464 364.404C359.549 353.929 354.161 341.476 351.787 328.17L342.455 275.865Z" fill="#FED291"/>
<path d="M555.71 487.733C553.527 470.096 552.95 452.225 553.99 434.438L555.71 405C546.231 427.619 548.373 457.39 555.71 487.733Z" fill="#CACACA"/>
<path d="M564.151 493.249C563.423 482.64 563.231 471.94 563.578 461.272L564.151 443.609C560.992 457.18 561.706 475.043 564.151 493.249Z" fill="#CACACA"/>
<path d="M600.025 514.954V524.796C600.022 525.578 599.737 526.326 599.234 526.879C598.731 527.432 598.05 527.744 597.338 527.748H592.86C592.742 527.748 592.626 527.773 592.517 527.822C592.408 527.872 592.309 527.944 592.226 528.036C592.143 528.127 592.077 528.236 592.032 528.355C591.987 528.475 591.964 528.603 591.965 528.733V609.433C591.961 610.215 591.677 610.963 591.174 611.516C590.67 612.069 589.989 612.381 589.278 612.385H534.643C533.931 612.385 533.248 612.073 532.744 611.52C532.24 610.966 531.957 610.216 531.956 609.433V528.733C531.956 528.472 531.861 528.222 531.693 528.037C531.526 527.853 531.298 527.749 531.061 527.748H525.687C524.974 527.748 524.291 527.436 523.788 526.883C523.284 526.329 523.001 525.579 523 524.796V514.954C523 514.567 523.069 514.182 523.204 513.824C523.338 513.465 523.536 513.14 523.786 512.865C524.036 512.591 524.332 512.374 524.658 512.226C524.984 512.077 525.334 512.001 525.687 512.002H597.338C598.05 512.004 598.733 512.316 599.236 512.869C599.739 513.422 600.023 514.172 600.025 514.954Z" fill="#F2F2F2"/>
<path d="M591.585 573.522C571.408 582.636 551.011 582.736 530.387 573.522V552.761C550.241 545.482 571.73 545.482 591.585 552.761V573.522Z" fill="#E6E6E6"/>
<path d="M465.504 9.26661C481.768 14.3762 491.129 30.8555 486.37 46.002C485.041 50.234 482.656 54.1096 479.453 57.2529L479.478 57.2606L478.655 58.0139C471.691 64.3362 466.404 72.3667 463.366 81.2369C462.441 83.9411 459.563 85.3832 456.815 84.52L433.83 77.2989C430.868 76.3684 429.043 73.4799 429.489 70.431C430.576 63.0127 430.45 55.4961 429.115 48.0894C425.875 41.538 425.258 34.2169 427.378 27.4688C432.137 12.3223 449.24 4.15703 465.504 9.26661ZM478.058 57.4138L478.356 57.1324C481.713 54.0041 484.205 50.0675 485.562 45.7481C490.182 31.0441 481.071 15.0382 465.252 10.0686C449.433 5.099 432.806 13.0186 428.186 27.7226C426.125 34.2824 426.734 41.4029 429.9 47.7733L429.938 47.8856C431.299 55.4004 431.43 63.0279 430.327 70.5555C429.94 73.1931 431.52 75.692 434.082 76.4969L457.067 83.718C459.373 84.4424 461.788 83.2322 462.565 80.9628C465.644 71.9702 471.001 63.8278 478.058 57.4138Z" fill="#454546"/>
<path d="M460.625 83.5143L430.278 73.9804C429.313 73.6773 428.298 74.2618 428.086 75.2429L427.395 78.4342C426.818 81.1048 426.855 83.8732 427.504 86.5329C427.612 86.9776 427.975 87.3163 428.427 87.4012C437.757 89.1505 446.567 91.8795 454.811 95.6728C455.262 95.8803 455.792 95.7853 456.136 95.4314L456.452 95.1064C458.031 93.4812 459.29 91.5754 460.162 89.4874L461.701 85.8037C462.088 84.8774 461.59 83.8175 460.625 83.5143Z" fill="#454546"/>
<path d="M429.992 85.5654L454.842 93.3722L449.799 109.424C448.897 112.295 445.816 113.888 442.923 112.979L428.557 108.465C425.664 107.556 424.047 104.488 424.949 101.617L429.992 85.5654Z" fill="#454546"/>
<path d="M437.614 115.937L432.229 114.245C431.636 114.059 431.169 113.601 430.975 113.014L429.008 107.065L444.362 111.889L439.346 115.644C438.851 116.014 438.206 116.123 437.614 115.937Z" fill="#454546"/>
<path d="M470.245 26.3204C466.037 25.8908 461.828 25.4612 457.619 25.0315C455.726 24.8383 453.675 24.4024 451.784 24.7718C449.951 25.13 448.294 26.5692 448.293 28.5309C448.292 30.4043 449.536 31.9701 451.11 32.8825C452.857 33.8949 454.871 34.5244 456.74 35.2729C458.69 36.0537 460.64 36.8345 462.59 37.6152C463.518 37.9868 464.458 38.3374 465.376 38.7324C465.67 38.8587 465.989 38.9996 466.178 39.2689C466.176 39.2649 466.246 39.3472 466.195 39.3403C466.185 39.3389 466.204 39.2752 466.207 39.2713C466.283 39.1644 466.231 39.2721 466.2 39.2626C466.189 39.2593 465.844 39.357 465.675 39.3364C465.219 39.281 464.763 39.0736 464.328 38.9291C463.385 38.6151 462.431 38.3348 461.467 38.0885C459.529 37.5928 457.551 37.2301 455.565 36.9975C453.61 36.7688 451.628 36.659 449.662 36.7244C447.755 36.7879 445.597 37.3678 444.916 39.3732C444.276 41.2567 445.515 43.111 447.055 44.1182C447.846 44.6362 448.734 45.0127 449.584 45.4242C450.532 45.8833 451.48 46.3423 452.428 46.8014C454.292 47.7043 456.157 48.6072 458.021 49.51C458.969 49.9691 459.917 50.4282 460.865 50.8873C461.307 51.1013 461.755 51.3068 462.192 51.53C462.353 51.6123 462.497 51.7159 462.655 51.8029C462.549 51.7445 462.689 51.7886 462.658 51.8075C462.717 51.8753 462.719 51.8686 462.665 51.7873L462.637 51.6988C462.623 51.3452 462.64 51.3046 462.967 50.9941C463.029 50.9348 463.086 51.0343 462.987 50.9906C462.881 50.9441 463.057 50.9977 462.925 51.0089C462.859 51.0145 462.79 51.0108 462.724 51.0084C462.224 50.9902 461.721 50.9047 461.224 50.8488C460.19 50.7326 459.157 50.6164 458.123 50.5002C456.09 50.2717 454.057 50.0431 452.025 49.8147C448.444 49.4124 444.581 49.1761 441.609 51.5625C440.963 52.0816 440.405 52.7387 440.003 53.4613C439.672 54.056 439.781 54.8193 440.385 55.2071C440.933 55.5589 441.807 55.4334 442.14 54.8353C443.756 51.9328 447.528 51.8932 450.528 52.1853C452.517 52.379 454.502 52.6253 456.488 52.8485C458.49 53.0735 460.5 53.3762 462.508 53.5231C463.352 53.5848 464.356 53.3731 464.837 52.6103C465.363 51.7751 465.187 50.7536 464.488 50.068C463.818 49.4104 462.88 49.0804 462.049 48.6778C461.132 48.2341 460.216 47.7903 459.299 47.3465C457.435 46.4436 455.571 45.5408 453.706 44.6379C452.79 44.1941 451.873 43.7504 450.957 43.3066C450.107 42.8951 449.22 42.5187 448.428 42.0006C447.892 41.6501 447.38 41.1765 447.295 40.5395C447.268 40.3341 447.287 40.197 447.408 40.0136C447.573 39.7617 447.872 39.5728 448.175 39.4585C448.872 39.1951 449.692 39.2372 450.424 39.2344C451.384 39.2307 452.344 39.26 453.303 39.3222C455.206 39.4456 457.102 39.694 458.969 40.088C459.942 40.2934 460.907 40.5329 461.863 40.8064C462.767 41.0651 463.649 41.4027 464.553 41.6566C465.518 41.9273 466.58 41.9827 467.467 41.4539C468.379 40.9098 468.868 39.9288 468.683 38.8748C468.318 36.7891 465.801 36.1921 464.126 35.5215C462.208 34.7537 460.291 33.986 458.374 33.2182C456.581 32.5003 454.701 31.8773 452.968 31.0245C452.326 30.7087 451.609 30.2732 451.226 29.7145C450.874 29.2024 450.722 28.6279 450.91 28.1591C451.085 27.723 451.7 27.3739 452.267 27.2508C453.064 27.0781 453.906 27.1848 454.709 27.2657C458.843 27.6821 462.976 28.1096 467.11 28.5315C468.127 28.6353 469.144 28.7391 470.161 28.843C470.844 28.9126 471.45 28.2784 471.473 27.6291C471.497 26.9108 470.93 26.3903 470.245 26.3204Z" fill="#F5D0A3"/>
</svg>
