<svg width="623" height="566" viewBox="0 0 623 566" fill="none" xmlns="http://www.w3.org/2000/svg">
<path fill-rule="evenodd" clip-rule="evenodd" d="M323.989 0.86653C374.7 1.76756 428.934 -2.06764 472.547 20.5301C515.684 42.881 535.955 86.6896 561.92 124.148C585.499 158.164 613.539 191.552 618.488 231.071C623.294 269.451 592.766 304.078 589.273 342.566C585.102 388.525 627.084 441.746 595.985 479.014C565.418 515.643 495.898 497.304 447.141 512.889C403.606 526.805 370.328 564.626 323.989 565.957C277.578 567.289 238.857 537.387 196.872 520.075C154.619 502.652 108.351 491.519 74.746 463.18C39.4448 433.412 3.8073 396.943 0.19298 354.221C-3.43737 311.309 45.2293 278.337 55.5486 236.261C66.0484 193.449 39.8835 146.398 60.9112 106.648C82.5684 65.7076 125.559 34.0689 172.489 15.1987C219.209 -3.58692 272.559 -0.0472736 323.989 0.86653Z" fill="#FFECDA"/>
<path d="M463.762 562.233C462.589 562.232 461.436 561.927 460.415 561.347L266.919 451.952C265.346 451.06 264.192 449.581 263.708 447.839C263.224 446.096 263.451 444.234 264.339 442.659L416.742 173.093C417.183 172.313 417.772 171.628 418.478 171.076C419.183 170.524 419.991 170.117 420.854 169.877C421.717 169.638 422.618 169.571 423.507 169.68C424.396 169.789 425.255 170.072 426.034 170.513L619.53 279.908C621.103 280.8 622.258 282.279 622.742 284.021C623.226 285.763 622.999 287.626 622.111 289.201L469.708 558.766C469.269 559.547 468.68 560.234 467.974 560.786C467.268 561.338 466.46 561.744 465.596 561.982C464.999 562.148 464.382 562.232 463.762 562.233Z" fill="#E6E6E6"/>
<path d="M411.346 183.653L410.568 185.029L615.067 300.645L615.844 299.269L411.346 183.653Z" fill="white"/>
<path d="M397.35 208.41L396.572 209.785L601.071 325.401L601.848 324.026L397.35 208.41Z" fill="white"/>
<path d="M383.354 233.166L382.576 234.541L587.075 350.157L587.852 348.782L383.354 233.166Z" fill="white"/>
<path d="M369.358 257.922L368.58 259.297L573.079 374.913L573.856 373.538L369.358 257.922Z" fill="white"/>
<path d="M355.362 282.677L354.584 284.053L559.082 399.669L559.86 398.293L355.362 282.677Z" fill="white"/>
<path d="M341.365 307.433L340.588 308.809L545.086 424.425L545.864 423.049L341.365 307.433Z" fill="white"/>
<path d="M327.369 332.19L326.592 333.565L531.09 449.181L531.868 447.806L327.369 332.19Z" fill="white"/>
<path d="M313.373 356.946L312.596 358.321L517.094 473.937L517.872 472.562L313.373 356.946Z" fill="white"/>
<path d="M299.377 381.702L298.6 383.077L503.098 498.693L503.876 497.318L299.377 381.702Z" fill="white"/>
<path d="M285.381 406.458L284.604 407.833L489.102 523.449L489.879 522.074L285.381 406.458Z" fill="white"/>
<path d="M271.385 431.214L270.607 432.589L475.106 548.205L475.883 546.829L271.385 431.214Z" fill="white"/>
<path d="M445.762 521.233C444.589 521.232 443.436 520.927 442.415 520.347L248.919 410.952C247.346 410.06 246.192 408.581 245.708 406.839C245.224 405.096 245.451 403.234 246.339 401.659L398.742 132.093C399.183 131.313 399.772 130.628 400.478 130.076C401.183 129.524 401.991 129.117 402.854 128.877C403.717 128.638 404.618 128.571 405.507 128.68C406.396 128.789 407.255 129.072 408.034 129.513L601.53 238.908C603.103 239.8 604.258 241.279 604.742 243.021C605.226 244.763 604.999 246.626 604.111 248.201L451.708 517.766C451.269 518.547 450.68 519.234 449.974 519.786C449.268 520.338 448.46 520.744 447.596 520.982C446.999 521.148 446.382 521.232 445.762 521.233Z" fill="#F2F2F2"/>
<path d="M393.346 142.653L392.568 144.029L597.067 259.645L597.844 258.269L393.346 142.653Z" fill="white"/>
<path d="M379.35 167.41L378.572 168.785L583.071 284.401L583.848 283.026L379.35 167.41Z" fill="white"/>
<path d="M365.354 192.166L364.576 193.541L569.075 309.157L569.852 307.782L365.354 192.166Z" fill="white"/>
<path d="M351.358 216.922L350.58 218.297L555.078 333.913L555.856 332.537L351.358 216.922Z" fill="white"/>
<path d="M337.362 241.677L336.584 243.053L541.082 358.669L541.86 357.293L337.362 241.677Z" fill="white"/>
<path d="M323.365 266.433L322.588 267.809L527.086 383.425L527.864 382.049L323.365 266.433Z" fill="white"/>
<path d="M309.369 291.19L308.592 292.565L513.09 408.181L513.868 406.806L309.369 291.19Z" fill="white"/>
<path d="M295.373 315.946L294.596 317.321L499.094 432.937L499.872 431.562L295.373 315.946Z" fill="white"/>
<path d="M281.377 340.702L280.6 342.077L485.098 457.693L485.876 456.318L281.377 340.702Z" fill="white"/>
<path d="M267.381 365.458L266.604 366.833L471.102 482.449L471.879 481.074L267.381 365.458Z" fill="white"/>
<path d="M253.385 390.214L252.607 391.589L457.106 507.205L457.883 505.829L253.385 390.214Z" fill="white"/>
<path d="M426.481 127H117.244V557H426.481C427.592 557 428.657 556.559 429.443 555.773C430.228 554.988 430.669 553.923 430.669 552.812V131.188C430.669 130.078 430.228 129.012 429.443 128.227C428.657 127.441 427.592 127 426.481 127ZM134.695 545.133C133.177 545.133 131.692 544.683 130.429 543.839C129.167 542.995 128.183 541.796 127.601 540.393C127.02 538.99 126.868 537.446 127.164 535.957C127.461 534.467 128.192 533.099 129.266 532.025C130.34 530.951 131.708 530.22 133.197 529.924C134.687 529.627 136.231 529.779 137.634 530.36C139.037 530.942 140.236 531.926 141.08 533.189C141.924 534.451 142.374 535.936 142.374 537.455C142.374 538.463 142.175 539.461 141.79 540.393C141.404 541.325 140.838 542.171 140.125 542.884C139.412 543.597 138.566 544.163 137.634 544.549C136.702 544.935 135.704 545.133 134.695 545.133ZM134.695 506.042C133.177 506.042 131.692 505.592 130.429 504.748C129.167 503.904 128.183 502.705 127.601 501.302C127.02 499.899 126.868 498.355 127.164 496.866C127.461 495.376 128.192 494.008 129.266 492.934C130.34 491.86 131.708 491.129 133.197 490.833C134.687 490.536 136.231 490.688 137.634 491.27C139.037 491.851 140.236 492.835 141.08 494.098C141.924 495.36 142.374 496.845 142.374 498.364C142.374 499.372 142.175 500.371 141.79 501.302C141.404 502.234 140.838 503.08 140.125 503.793C139.412 504.506 138.566 505.072 137.634 505.458C136.702 505.844 135.704 506.042 134.695 506.042ZM134.695 466.951C133.177 466.951 131.692 466.501 130.429 465.657C129.167 464.814 128.183 463.614 127.601 462.211C127.02 460.808 126.868 459.264 127.164 457.775C127.461 456.285 128.192 454.917 129.266 453.843C130.34 452.769 131.708 452.038 133.197 451.742C134.687 451.445 136.231 451.597 137.634 452.179C139.037 452.76 140.236 453.744 141.08 455.007C141.924 456.27 142.374 457.754 142.374 459.273C142.374 460.281 142.175 461.28 141.79 462.211C141.404 463.143 140.838 463.989 140.125 464.702C139.412 465.415 138.566 465.981 137.634 466.367C136.702 466.753 135.704 466.951 134.695 466.951ZM134.695 427.86C133.177 427.86 131.692 427.41 130.429 426.566C129.167 425.723 128.183 424.523 127.601 423.12C127.02 421.717 126.868 420.173 127.164 418.684C127.461 417.194 128.192 415.826 129.266 414.752C130.34 413.678 131.708 412.947 133.197 412.651C134.687 412.355 136.231 412.507 137.634 413.088C139.037 413.669 140.236 414.653 141.08 415.916C141.924 417.179 142.374 418.663 142.374 420.182C142.374 421.19 142.175 422.189 141.79 423.12C141.404 424.052 140.838 424.898 140.125 425.611C139.412 426.324 138.566 426.89 137.634 427.276C136.702 427.662 135.704 427.86 134.695 427.86ZM134.695 388.77C133.177 388.77 131.692 388.319 130.429 387.475C129.167 386.632 128.183 385.432 127.601 384.029C127.02 382.626 126.868 381.082 127.164 379.593C127.461 378.103 128.192 376.735 129.266 375.661C130.34 374.587 131.708 373.856 133.197 373.56C134.687 373.264 136.231 373.416 137.634 373.997C139.037 374.578 140.236 375.562 141.08 376.825C141.924 378.088 142.374 379.572 142.374 381.091C142.374 382.099 142.175 383.098 141.79 384.029C141.404 384.961 140.838 385.807 140.125 386.521C139.412 387.234 138.566 387.799 137.634 388.185C136.702 388.571 135.704 388.77 134.695 388.77ZM134.695 349.679C133.177 349.679 131.692 349.228 130.429 348.384C129.167 347.541 128.183 346.342 127.601 344.938C127.02 343.535 126.868 341.991 127.164 340.502C127.461 339.012 128.192 337.644 129.266 336.57C130.34 335.497 131.708 334.765 133.197 334.469C134.687 334.173 136.231 334.325 137.634 334.906C139.037 335.487 140.236 336.471 141.08 337.734C141.924 338.997 142.374 340.481 142.374 342C142.374 343.008 142.175 344.007 141.79 344.938C141.404 345.87 140.838 346.717 140.125 347.43C139.412 348.143 138.566 348.708 137.634 349.094C136.702 349.48 135.704 349.679 134.695 349.679ZM134.695 310.588C133.177 310.588 131.692 310.137 130.429 309.294C129.167 308.45 128.183 307.251 127.601 305.848C127.02 304.444 126.868 302.901 127.164 301.411C127.461 299.922 128.192 298.553 129.266 297.48C130.34 296.406 131.708 295.674 133.197 295.378C134.687 295.082 136.231 295.234 137.634 295.815C139.037 296.396 140.236 297.38 141.08 298.643C141.924 299.906 142.374 301.39 142.374 302.909C142.374 303.917 142.175 304.916 141.79 305.848C141.404 306.779 140.838 307.626 140.125 308.339C139.412 309.052 138.566 309.617 137.634 310.003C136.702 310.389 135.704 310.588 134.695 310.588ZM134.695 271.497C133.177 271.497 131.692 271.046 130.429 270.203C129.167 269.359 128.183 268.16 127.601 266.757C127.02 265.354 126.868 263.81 127.164 262.32C127.461 260.831 128.192 259.462 129.266 258.389C130.34 257.315 131.708 256.583 133.197 256.287C134.687 255.991 136.231 256.143 137.634 256.724C139.037 257.305 140.236 258.289 141.08 259.552C141.924 260.815 142.374 262.299 142.374 263.818C142.374 264.827 142.175 265.825 141.79 266.757C141.404 267.688 140.838 268.535 140.125 269.248C139.412 269.961 138.566 270.526 137.634 270.912C136.702 271.298 135.704 271.497 134.695 271.497ZM134.695 232.406C133.177 232.406 131.692 231.956 130.429 231.112C129.167 230.268 128.183 229.069 127.601 227.666C127.02 226.263 126.868 224.719 127.164 223.229C127.461 221.74 128.192 220.372 129.266 219.298C130.34 218.224 131.708 217.493 133.197 217.196C134.687 216.9 136.231 217.052 137.634 217.633C139.037 218.214 140.236 219.199 141.08 220.461C141.924 221.724 142.374 223.209 142.374 224.727C142.374 225.736 142.175 226.734 141.79 227.666C141.404 228.597 140.838 229.444 140.125 230.157C139.412 230.87 138.566 231.435 137.634 231.821C136.702 232.207 135.704 232.406 134.695 232.406ZM134.695 193.315C133.177 193.315 131.692 192.865 130.429 192.021C129.167 191.177 128.183 189.978 127.601 188.575C127.02 187.172 126.868 185.628 127.164 184.138C127.461 182.649 128.192 181.281 129.266 180.207C130.34 179.133 131.708 178.402 133.197 178.105C134.687 177.809 136.231 177.961 137.634 178.542C139.037 179.123 140.236 180.108 141.08 181.37C141.924 182.633 142.374 184.118 142.374 185.636C142.374 186.645 142.175 187.643 141.79 188.575C141.404 189.506 140.838 190.353 140.125 191.066C139.412 191.779 138.566 192.345 137.634 192.73C136.702 193.116 135.704 193.315 134.695 193.315ZM134.695 154.224C133.177 154.224 131.692 153.774 130.429 152.93C129.167 152.086 128.183 150.887 127.601 149.484C127.02 148.081 126.868 146.537 127.164 145.047C127.461 143.558 128.192 142.19 129.266 141.116C130.34 140.042 131.708 139.311 133.197 139.014C134.687 138.718 136.231 138.87 137.634 139.451C139.037 140.033 140.236 141.017 141.08 142.279C141.924 143.542 142.374 145.027 142.374 146.545C142.374 147.554 142.175 148.552 141.79 149.484C141.404 150.416 140.838 151.262 140.125 151.975C139.412 152.688 138.566 153.254 137.634 153.64C136.702 154.025 135.704 154.224 134.695 154.224Z" fill="#1E1E1E"/>
<path d="M117.243 150.733C115.171 150.733 97 150.636 97 147.243C97 143.851 115.171 143.753 117.243 143.753V145.149C106.541 145.149 99.6008 146.347 98.4832 147.243C99.6008 148.139 106.541 149.337 117.243 149.337C127.922 149.337 134.855 148.144 135.996 147.249C135.453 146.866 133.235 146.062 127.286 145.548L127.406 144.157C137.487 145.028 137.487 146.638 137.487 147.243C137.487 150.636 119.316 150.733 117.243 150.733Z" fill="#2F2E41"/>
<path d="M117.243 189.126C115.171 189.126 97 189.029 97 185.636C97 182.244 115.171 182.146 117.243 182.146V183.542C106.541 183.542 99.6008 184.74 98.4832 185.636C99.6008 186.532 106.541 187.73 117.243 187.73C127.922 187.73 134.855 186.537 135.996 185.642C135.453 185.259 133.235 184.455 127.286 183.941L127.406 182.55C137.487 183.421 137.487 185.031 137.487 185.636C137.487 189.029 119.316 189.126 117.243 189.126Z" fill="#2F2E41"/>
<path d="M117.243 228.218C115.171 228.218 97 228.12 97 224.728C97 221.335 115.171 221.237 117.243 221.237V222.633C106.541 222.633 99.6008 223.831 98.4832 224.728C99.6008 225.624 106.541 226.822 117.243 226.822C127.922 226.822 134.855 225.629 135.996 224.734C135.453 224.35 133.235 223.547 127.286 223.032L127.406 221.642C137.487 222.513 137.487 224.122 137.487 224.728C137.487 228.12 119.316 228.218 117.243 228.218Z" fill="#2F2E41"/>
<path d="M117.243 267.309C115.171 267.309 97 267.211 97 263.818C97 260.426 115.171 260.328 117.243 260.328V261.724C106.541 261.724 99.6008 262.922 98.4832 263.818C99.6008 264.714 106.541 265.913 117.243 265.913C127.922 265.913 134.855 264.72 135.996 263.825C135.453 263.441 133.235 262.637 127.286 262.123L127.406 260.732C137.487 261.604 137.487 263.213 137.487 263.818C137.487 267.211 119.316 267.309 117.243 267.309Z" fill="#2F2E41"/>
<path d="M117.243 306.399C115.171 306.399 97 306.302 97 302.909C97 299.517 115.171 299.419 117.243 299.419V300.815C106.541 300.815 99.6008 302.013 98.4832 302.909C99.6008 303.805 106.541 305.003 117.243 305.003C127.922 305.003 134.855 303.81 135.996 302.915C135.453 302.532 133.235 301.728 127.286 301.214L127.406 299.823C137.487 300.694 137.487 302.304 137.487 302.909C137.487 306.302 119.316 306.399 117.243 306.399Z" fill="#2F2E41"/>
<path d="M117.243 345.49C115.171 345.49 97 345.392 97 342C97 338.608 115.171 338.51 117.243 338.51V339.906C106.541 339.906 99.6008 341.104 98.4832 342C99.6008 342.896 106.541 344.094 117.243 344.094C127.922 344.094 134.855 342.901 135.996 342.006C135.453 341.623 133.235 340.819 127.286 340.305L127.406 338.914C137.487 339.785 137.487 341.394 137.487 342C137.487 345.392 119.316 345.49 117.243 345.49Z" fill="#2F2E41"/>
<path d="M117.243 384.581C115.171 384.581 97 384.483 97 381.091C97 377.698 115.171 377.601 117.243 377.601V378.997C106.541 378.997 99.6008 380.195 98.4832 381.091C99.6008 381.987 106.541 383.185 117.243 383.185C127.922 383.185 134.855 381.992 135.996 381.097C135.453 380.714 133.235 379.91 127.286 379.396L127.406 378.005C137.487 378.876 137.487 380.485 137.487 381.091C137.487 384.483 119.316 384.581 117.243 384.581Z" fill="#2F2E41"/>
<path d="M117.243 423.672C115.171 423.672 97 423.574 97 420.182C97 416.789 115.171 416.691 117.243 416.691V418.088C106.541 418.088 99.6008 419.286 98.4832 420.182C99.6008 421.078 106.541 422.276 117.243 422.276C127.922 422.276 134.855 421.083 135.996 420.188C135.453 419.804 133.235 419.001 127.286 418.486L127.406 417.096C137.487 417.967 137.487 419.576 137.487 420.182C137.487 423.574 119.316 423.672 117.243 423.672Z" fill="#2F2E41"/>
<path d="M117.243 462.763C115.171 462.763 97 462.665 97 459.273C97 455.88 115.171 455.782 117.243 455.782V457.178C106.541 457.178 99.6008 458.376 98.4832 459.273C99.6008 460.169 106.541 461.367 117.243 461.367C127.922 461.367 134.855 460.174 135.996 459.279C135.453 458.895 133.235 458.091 127.286 457.577L127.406 456.186C137.487 457.058 137.487 458.667 137.487 459.273C137.487 462.665 119.316 462.763 117.243 462.763Z" fill="#2F2E41"/>
<path d="M117.243 501.854C115.171 501.854 97 501.756 97 498.364C97 494.971 115.171 494.874 117.243 494.874V496.27C106.541 496.27 99.6008 497.468 98.4832 498.364C99.6008 499.26 106.541 500.458 117.243 500.458C127.922 500.458 134.855 499.265 135.996 498.37C135.453 497.986 133.235 497.183 127.286 496.668L127.406 495.278C137.487 496.149 137.487 497.758 137.487 498.364C137.487 501.756 119.316 501.854 117.243 501.854Z" fill="#2F2E41"/>
<path d="M117.243 540.945C115.171 540.945 97 540.847 97 537.455C97 534.062 115.171 533.964 117.243 533.964V535.36C106.541 535.36 99.6008 536.558 98.4832 537.455C99.6008 538.351 106.541 539.549 117.243 539.549C127.922 539.549 134.855 538.356 135.996 537.461C135.453 537.077 133.235 536.274 127.286 535.759L127.406 534.369C137.487 535.24 137.487 536.849 137.487 537.455C137.487 540.847 119.316 540.945 117.243 540.945Z" fill="#2F2E41"/>
<path d="M363.306 291.391H209.735C208.532 291.39 207.378 290.911 206.528 290.061C205.677 289.21 205.199 288.057 205.197 286.854V226.822C205.199 225.619 205.677 224.465 206.528 223.615C207.378 222.764 208.532 222.286 209.735 222.284H363.306C364.509 222.286 365.662 222.764 366.513 223.615C367.364 224.465 367.842 225.619 367.843 226.822V286.854C367.842 288.057 367.364 289.21 366.513 290.061C365.662 290.912 364.509 291.39 363.306 291.391Z" fill="white"/>
<path d="M306.067 242.876H266.977C266.051 242.876 265.163 242.509 264.509 241.854C263.854 241.2 263.486 240.312 263.486 239.386C263.486 238.461 263.854 237.573 264.509 236.918C265.163 236.264 266.051 235.896 266.977 235.896H306.068C306.993 235.896 307.881 236.264 308.535 236.918C309.19 237.573 309.558 238.461 309.558 239.386C309.558 240.312 309.19 241.2 308.535 241.854C307.881 242.509 306.993 242.876 306.067 242.876Z" fill="#BEA4E7"/>
<path d="M327.706 260.328H245.336C244.41 260.328 243.523 259.96 242.868 259.306C242.213 258.651 241.846 257.764 241.846 256.838C241.846 255.912 242.213 255.024 242.868 254.37C243.523 253.715 244.41 253.348 245.336 253.348H327.706C328.632 253.348 329.52 253.715 330.174 254.37C330.829 255.024 331.196 255.912 331.196 256.838C331.196 257.764 330.829 258.651 330.174 259.306C329.52 259.96 328.632 260.328 327.706 260.328Z" fill="#BEA4E7"/>
<path d="M327.706 277.779H245.336C244.41 277.779 243.523 277.412 242.868 276.757C242.213 276.102 241.846 275.215 241.846 274.289C241.846 273.363 242.213 272.476 242.868 271.821C243.523 271.167 244.41 270.799 245.336 270.799H327.706C328.632 270.799 329.52 271.167 330.174 271.821C330.829 272.476 331.196 273.363 331.196 274.289C331.196 275.215 330.829 276.102 330.174 276.757C329.52 277.412 328.632 277.779 327.706 277.779Z" fill="#BEA4E7"/>
</svg>
