<svg width="674" height="717" viewBox="0 0 674 717" fill="none" xmlns="http://www.w3.org/2000/svg">
<path fill-rule="evenodd" clip-rule="evenodd" d="M409.386 592.299C421.029 591.363 434.015 592.394 442.063 598.655C449.992 604.823 449.415 614.237 448.466 622.698C447.613 630.307 444.528 637.758 437.084 643.077C429.742 648.323 419.591 650.051 409.386 650.622C398.067 651.256 385.898 651.736 377.125 646.436C367.711 640.748 361.921 631.613 363.168 622.698C364.339 614.334 374.628 608.996 383.148 603.393C390.966 598.25 398.962 593.138 409.386 592.299Z" fill="#FFF3E1"/>
<path fill-rule="evenodd" clip-rule="evenodd" d="M239.908 213.561C303.598 192.636 372.518 190.945 435.331 213.956C499.914 237.615 557.904 279.459 581.974 338.874C605.615 397.227 587.649 460.933 558.111 517.02C529.832 570.714 483.825 613.538 424.286 638.286C361.062 664.565 287.352 682.828 224.591 655.649C163.078 629.01 142.749 563.184 117.758 505.543C92.783 447.94 59.0313 387.506 83.2421 329.634C108.142 270.115 174.051 235.199 239.908 213.561Z" fill="#FFF3E1"/>
<path fill-rule="evenodd" clip-rule="evenodd" d="M239.887 195.001C325.368 194.858 395.974 250.181 446.207 313.139C493.306 372.169 515.203 445.289 496.123 516.147C477.406 585.661 420.306 638.997 349.892 670.843C278.232 703.252 193.293 718.784 122.272 685.227C53.1666 652.575 27.0014 579.832 10.63 510.542C-5.40233 442.687 -7.53987 371.722 34.521 313.831C81.5978 249.037 154.547 195.145 239.887 195.001Z" fill="#FFF3E1"/>
<path d="M371.903 629.053C346.08 635.294 319.103 638.594 291.357 638.594C261.304 638.594 232.144 634.726 204.386 627.434C201.36 616.274 197.924 603.915 194.03 590.247C159.09 467.512 229.875 380.493 229.875 380.493L247.338 366.763L404.535 387.822C422.83 476.694 410.923 542.641 371.903 629.053Z" fill="#1E1E1E"/>
<path d="M346.294 146.014L272.755 138.687L219.439 184.484L235.986 349.355L228.632 380.498L403.287 387.825L394.094 343.86L406.964 182.652L346.294 146.014Z" fill="#F5D0A3"/>
<path d="M370.196 232.114H252.533V415.304H370.196V232.114Z" fill="white"/>
<path d="M353.405 256.214H320.529C319.639 256.214 318.916 255.493 318.916 254.607C318.916 253.721 319.639 253 320.529 253H353.405C354.295 253 355.018 253.721 355.018 254.607C355.018 255.493 354.295 256.214 353.405 256.214Z" fill="#F5D0A3"/>
<path d="M353.405 268.573H320.529C319.639 268.573 318.916 267.852 318.916 266.966C318.916 266.08 319.639 265.359 320.529 265.359H353.405C354.295 265.359 355.018 266.08 355.018 266.966C355.018 267.852 354.295 268.573 353.405 268.573Z" fill="#F5D0A3"/>
<path d="M353.405 280.931H320.529C319.639 280.931 318.916 280.211 318.916 279.325C318.916 278.439 319.639 277.718 320.529 277.718H353.405C354.295 277.718 355.018 278.439 355.018 279.325C355.018 280.211 354.295 280.931 353.405 280.931Z" fill="#F5D0A3"/>
<path d="M351.931 324.187H271.986C269.824 324.187 268.064 322.434 268.064 320.28C268.064 318.125 269.824 316.372 271.986 316.372H351.931C354.093 316.372 355.853 318.125 355.853 320.28C355.853 322.434 354.093 324.187 351.931 324.187Z" fill="#E6E6E6"/>
<path d="M306.957 395.337C322.864 400.305 338.33 396.153 341.501 386.066C344.672 375.979 334.348 363.777 318.435 358.81C312.106 356.739 305.371 356.209 298.793 357.263L231.13 337.063L188.188 367.674L289.936 385.437C294.735 390.044 300.571 393.439 306.957 395.337Z" fill="#F2DAC3"/>
<path d="M226.371 180.82C226.371 180.82 201.718 194.857 194.675 224.685L166.5 343.999C166.5 343.999 161.217 361.545 184.99 370.318C208.762 379.091 237.817 341.367 237.817 341.367L224.547 328.145L250.143 216.79L226.371 180.82Z" fill="#F5D0A3"/>
<path d="M288.617 377.703C272.081 379.798 257.592 372.994 256.255 362.508C254.919 352.022 267.24 341.825 283.783 339.731C290.379 338.805 297.102 339.466 303.39 341.659L373.568 333.663L410.421 371.338L307.124 370.948C301.585 374.64 295.239 376.956 288.617 377.703Z" fill="#F2DAC3"/>
<path d="M405.896 180.703C405.896 180.703 427.679 198.851 429.335 229.449L435.956 351.843C435.956 351.843 438.052 370.043 413.1 374.502C388.147 378.961 366.223 336.724 366.223 336.724L381.623 326.04L376.132 211.933L405.896 180.703Z" fill="#F5D0A3"/>
<path d="M307.689 244.937H265.404V296.23H307.689V244.937Z" fill="#F5D0A3"/>
<path d="M276.689 283.224L273.784 295.9L273.711 296.23H265.438C266.43 292.053 267.662 286.887 268.232 284.414C268.949 281.41 270.824 279.468 272.019 278.497C272.626 277.966 273.067 277.728 273.067 277.728L276.689 283.224Z" fill="#E6E6E6"/>
<path d="M304.617 296.23H296.564L295.902 282.472L300.315 277.838L300.443 277.709C300.443 277.709 303.771 280.476 304.01 285.147C304.139 287.473 304.396 292.145 304.617 296.23Z" fill="#E6E6E6"/>
<path d="M294.178 261.426L279.795 263.114L281.401 276.704L295.784 275.016L294.178 261.426Z" fill="#2F2E41"/>
<path d="M286.827 269.26C290.727 269.26 293.888 266.109 293.888 262.224C293.888 258.338 290.727 255.188 286.827 255.188C282.927 255.188 279.766 258.338 279.766 262.224C279.766 266.109 282.927 269.26 286.827 269.26Z" fill="#FFB6B6"/>
<path d="M282.171 251.311C277.771 252.528 278.181 254.163 276.848 255.192C274.499 257.007 274.019 261.507 275.696 264.242C276.144 264.973 277.021 265.939 276.791 267.12C276.614 268.026 275.867 268.637 275.726 268.748C274.574 269.658 275.278 268.654 274.792 269.358C274.256 270.137 275.334 271.02 274.895 272.353C274.506 273.534 273.42 273.565 273.364 274.286C273.267 275.527 276.314 277.641 279.228 277.105C281.822 276.627 283.504 274.197 283.91 272.046C284.181 270.606 284.087 268.193 282.83 267.163C282.653 267.018 282.177 266.674 281.692 266.044C281.307 265.545 280.801 264.889 280.991 264.372C281.194 263.822 281.974 264.008 282.392 263.456C282.958 262.709 282.057 261.664 282.041 260.491C282.015 258.506 284.525 255.819 287.525 255.839C290.929 255.862 292.588 259.352 292.763 259.734C293.124 260.526 293.213 261.323 293.39 262.917C293.645 265.204 293.805 266.638 293.26 268.193C292.475 270.43 291.13 270.356 290.941 271.973C290.646 274.493 293.687 276.633 294.034 276.871C296.606 278.634 300.201 278.833 300.686 277.843C301.123 276.952 298.622 275.939 298.395 273.352C298.199 271.111 299.932 270.218 299.357 268.73C298.725 267.093 296.46 267.749 295.258 265.955C294.136 264.28 295.698 263.094 294.994 259.472C294.845 258.706 294.34 256.516 292.645 254.487C291.899 253.593 291.139 252.684 289.873 252.307C288.456 251.885 284.499 250.667 282.171 251.311Z" fill="#2F2E41"/>
<path d="M279.924 257.837C280.287 259.346 282.682 259.825 283.688 259.901C284.114 259.933 285.555 260.041 286.883 259.276C287.373 258.993 287.538 258.769 288.064 258.636C288.776 258.455 289.173 258.686 290.354 258.868C291.667 259.07 292.324 259.171 292.615 258.853C293.091 258.334 292.507 256.885 291.769 255.946C290.404 254.211 288.241 253.878 287.232 253.723C286.079 253.546 283.74 253.186 281.806 254.61C281.547 254.801 279.556 256.305 279.924 257.837Z" fill="#2F2E41"/>
<path d="M300.611 278.021L299.158 296.23H273.806L273.787 295.901L272.022 278.498L272.004 278.296L277.372 273.698L279.027 272.269L280.148 271.316L283.035 271.61L291.345 272.434H291.363L294.158 274.119L298.331 276.647L300.316 277.838L300.611 278.021Z" fill="#E6E6E6"/>
<path d="M381.994 106.453C381.994 144.849 349.088 139.041 308.497 139.041C267.906 139.041 235 144.849 235 106.453C235 68.0583 251.074 0 308.497 0C367.899 0 381.994 68.0583 381.994 106.453Z" fill="#1E1E1E"/>
<path d="M346.779 119.748C366.063 98.8609 366.063 64.9955 346.779 44.108C327.495 23.2204 296.229 23.2204 276.945 44.108C257.66 64.9955 257.66 98.8609 276.945 119.748C296.229 140.636 327.495 140.636 346.779 119.748Z" fill="#F2DAC3"/>
<path d="M251.244 80.7722H270.76L279.369 54.5537L281.091 80.7722H290.418L295.441 65.4781L296.445 80.7722H365.753C365.753 65.7061 360.25 51.2571 350.455 40.6037C340.659 29.9503 327.374 23.9653 313.521 23.9653H303.476C289.623 23.9653 276.338 29.9503 266.543 40.6037C256.747 51.2571 251.244 65.7061 251.244 80.7722Z" fill="#1E1E1E"/>
</svg>
