<svg width="431" height="567" viewBox="0 0 431 567" fill="none" xmlns="http://www.w3.org/2000/svg">
<path d="M263.831 174.292L199.02 177.57C199.02 177.57 204.43 215.278 169.367 218.864C134.304 222.45 102.429 211.691 89.6785 238.587C76.9284 265.483 82.4239 361.251 82.4239 361.251C82.4239 361.251 106.33 458.076 125.456 472.42C144.581 486.764 311.926 467.041 311.926 467.041L381.961 367.553L379.589 290.828C378.351 250.762 345.836 220.681 310.816 228.096C310.129 228.241 309.436 228.398 308.739 228.566C308.739 228.566 301.045 222.097 279.937 210.223C267.028 202.962 263.831 174.292 263.831 174.292Z" fill="white"/>
<path d="M122.396 216.602C122.396 216.602 138.473 248.194 131.82 293.232C125.166 338.27 153.083 433.523 153.083 433.523L173.043 428.119C173.043 428.119 159.736 334.44 163.063 312.822C166.39 291.204 167.308 227.411 150.674 216.602C134.04 205.793 122.396 216.602 122.396 216.602Z" fill="#1E1E1E"/>
<path d="M308.113 233.227L314.728 432.257L327.317 441.245C327.317 441.245 345.415 222.829 335.972 222.829H316.76C315.623 222.829 314.497 223.085 313.447 223.582C312.396 224.079 311.442 224.807 310.638 225.726C309.834 226.644 309.196 227.735 308.761 228.935C308.326 230.135 308.102 231.421 308.102 232.72C308.102 232.889 308.105 233.058 308.113 233.227Z" fill="#1E1E1E"/>
<path d="M161.964 429.111C166.335 429.111 169.878 424.913 169.878 419.734C169.878 414.556 166.335 410.358 161.964 410.358C157.594 410.358 154.051 414.556 154.051 419.734C154.051 424.913 157.594 429.111 161.964 429.111Z" fill="#6C63FF"/>
<path d="M320.763 437.936C325.425 437.936 329.205 433.985 329.205 429.111C329.205 424.237 325.425 420.286 320.763 420.286C316.102 420.286 312.322 424.237 312.322 429.111C312.322 433.985 316.102 437.936 320.763 437.936Z" fill="#6C63FF"/>
<path d="M430.498 547.455V553.539C430.501 555.209 430.22 556.865 429.67 558.42C429.426 559.114 429.131 559.784 428.788 560.425C427.704 562.43 426.167 564.09 424.325 565.243C422.484 566.395 420.403 567.001 418.285 567H12.2127C10.0952 567.001 8.01376 566.395 6.17251 565.243C4.33127 564.09 2.79337 562.43 1.70962 560.425C1.36678 559.784 1.07178 559.114 0.827541 558.42C0.277627 556.865 -0.00305243 555.209 2.50347e-05 553.539V547.455C-0.000407317 545.688 0.314973 543.938 0.928154 542.305C1.54133 540.673 2.44031 539.189 3.57376 537.939C4.7072 536.689 6.05292 535.697 7.53406 535.021C9.01521 534.344 10.6028 533.995 12.2061 533.995H35.6195V531.158C35.6193 531.085 35.6324 531.012 35.6578 530.944C35.6833 530.876 35.7206 530.814 35.7678 530.762C35.8149 530.71 35.8709 530.668 35.9325 530.64C35.9942 530.612 36.0603 530.597 36.127 530.597H48.3413C48.4762 530.597 48.6056 530.656 48.7011 530.761C48.7966 530.866 48.8503 531.008 48.8506 531.157V533.995H56.48V531.158C56.4799 531.085 56.493 531.012 56.5184 530.944C56.5439 530.876 56.5812 530.814 56.6284 530.762C56.6755 530.71 56.7315 530.668 56.7931 530.64C56.8548 530.612 56.9208 530.597 56.9876 530.597H69.2019C69.3367 530.597 69.4661 530.656 69.5616 530.761C69.6571 530.866 69.711 531.008 69.7112 531.157V533.995H77.3497V531.159C77.3496 531.085 77.3627 531.012 77.3881 530.944C77.4136 530.876 77.4509 530.814 77.498 530.762C77.5452 530.71 77.6012 530.668 77.6628 530.64C77.7245 530.612 77.7906 530.597 77.8573 530.597H90.0716C90.2065 530.597 90.3359 530.656 90.4314 530.761C90.5268 530.866 90.5806 531.008 90.5808 531.157V533.995H98.2103V531.159C98.2102 531.085 98.2233 531.012 98.2487 530.944C98.2741 530.876 98.3115 530.814 98.3587 530.762C98.4058 530.71 98.4618 530.669 98.5234 530.64C98.5851 530.612 98.6511 530.597 98.7179 530.597H110.932C111.067 530.597 111.196 530.656 111.292 530.761C111.387 530.866 111.441 531.008 111.441 531.157V533.995H119.071V531.159C119.071 531.085 119.084 531.012 119.109 530.944C119.135 530.876 119.172 530.814 119.219 530.762C119.266 530.71 119.322 530.669 119.384 530.64C119.446 530.612 119.512 530.597 119.578 530.597H131.793C131.928 530.597 132.057 530.656 132.153 530.761C132.248 530.866 132.302 531.008 132.302 531.157V533.995H139.941V531.159C139.941 531.085 139.954 531.012 139.979 530.944C140.004 530.876 140.042 530.814 140.089 530.762C140.136 530.71 140.192 530.669 140.254 530.64C140.315 530.612 140.381 530.597 140.448 530.597H152.662C152.797 530.597 152.927 530.656 153.022 530.761C153.118 530.866 153.171 531.008 153.172 531.157V533.995H160.801V531.159C160.801 531.085 160.814 531.012 160.84 530.944C160.865 530.876 160.902 530.814 160.95 530.762C160.997 530.71 161.053 530.669 161.114 530.64C161.176 530.612 161.242 530.597 161.309 530.597H256.975C257.041 530.597 257.108 530.612 257.169 530.64C257.231 530.668 257.287 530.709 257.334 530.761C257.382 530.813 257.419 530.874 257.445 530.942C257.471 531.01 257.484 531.083 257.484 531.157V533.995H265.122V531.159C265.122 531.085 265.135 531.012 265.161 530.944C265.186 530.876 265.224 530.814 265.271 530.762C265.318 530.71 265.374 530.669 265.436 530.64C265.497 530.612 265.563 530.597 265.63 530.597H277.844C277.979 530.599 278.108 530.658 278.203 530.763C278.298 530.868 278.352 531.01 278.354 531.159V533.995H285.983V531.159C285.983 531.085 285.996 531.012 286.021 530.944C286.047 530.876 286.084 530.814 286.131 530.762C286.178 530.71 286.234 530.669 286.296 530.64C286.358 530.612 286.424 530.597 286.491 530.597H298.705C298.772 530.597 298.838 530.612 298.9 530.64C298.961 530.668 299.017 530.709 299.065 530.761C299.112 530.813 299.149 530.874 299.175 530.942C299.201 531.01 299.214 531.083 299.214 531.157V533.995H306.844V531.159C306.844 531.085 306.857 531.012 306.882 530.944C306.907 530.876 306.945 530.814 306.992 530.762C307.039 530.71 307.095 530.669 307.157 530.64C307.218 530.612 307.284 530.597 307.351 530.597H319.565C319.632 530.597 319.698 530.612 319.76 530.64C319.822 530.668 319.878 530.709 319.925 530.761C319.973 530.813 320.01 530.874 320.036 530.942C320.061 531.01 320.075 531.083 320.075 531.157V533.995H327.713V531.159C327.713 531.085 327.726 531.012 327.752 530.944C327.777 530.876 327.815 530.814 327.862 530.762C327.909 530.71 327.965 530.669 328.026 530.64C328.088 530.612 328.154 530.597 328.221 530.597H340.435C340.569 530.599 340.697 530.659 340.79 530.764C340.884 530.87 340.936 531.011 340.935 531.159V533.995H348.574V531.159C348.574 531.085 348.587 531.012 348.612 530.944C348.638 530.876 348.675 530.814 348.722 530.762C348.769 530.71 348.825 530.669 348.887 530.64C348.949 530.612 349.015 530.597 349.082 530.597H361.296C361.363 530.597 361.429 530.612 361.49 530.64C361.552 530.668 361.608 530.709 361.656 530.761C361.703 530.813 361.74 530.874 361.766 530.942C361.792 531.01 361.805 531.083 361.805 531.157V533.995H369.435V531.159C369.434 531.085 369.447 531.012 369.473 530.944C369.498 530.876 369.536 530.814 369.583 530.762C369.63 530.71 369.686 530.669 369.748 530.64C369.809 530.612 369.875 530.597 369.942 530.597H382.156C382.223 530.597 382.289 530.612 382.351 530.64C382.413 530.668 382.469 530.709 382.516 530.761C382.563 530.813 382.601 530.874 382.627 530.942C382.652 531.01 382.666 531.083 382.666 531.157V533.995H418.285C421.523 533.994 424.629 535.411 426.919 537.934C429.21 540.457 430.497 543.879 430.498 547.448L430.498 547.455Z" fill="#1E1E1E"/>
<path d="M395.266 294.531H35.2338C33.9325 294.531 32.6439 294.82 31.4416 295.381C30.2393 295.941 29.1469 296.763 28.2267 297.799C27.3065 298.836 26.5766 300.066 26.0786 301.42C25.5806 302.773 25.3242 304.224 25.3242 305.69V531.573C25.3242 534.533 26.3682 537.371 28.2267 539.463C30.0851 541.556 32.6056 542.732 35.2338 542.732H395.266C397.894 542.732 400.414 541.556 402.273 539.463C404.131 537.371 405.175 534.533 405.175 531.573V305.69C405.175 302.73 404.131 299.892 402.273 297.799C400.414 295.707 397.894 294.531 395.266 294.531Z" fill="#1E1E1E"/>
<path d="M216.304 397.121C228.542 397.121 238.462 386.255 238.462 372.852C238.462 359.449 228.542 348.584 216.304 348.584C204.067 348.584 194.146 359.449 194.146 372.852C194.146 386.255 204.067 397.121 216.304 397.121Z" fill="white"/>
<path d="M312.323 126.401C312.323 171.991 275.24 165.095 229.495 165.095C183.75 165.095 146.666 171.991 146.666 126.401C146.666 80.8111 164.78 0 229.495 0C296.438 0 312.323 80.8111 312.323 126.401Z" fill="#1E1E1E"/>
<path d="M272.638 142.517C294.37 117.658 294.37 77.3535 272.638 52.4944C250.905 27.6353 215.669 27.6353 193.937 52.4944C172.204 77.3535 172.204 117.658 193.936 142.517C215.669 167.376 250.905 167.376 272.638 142.517Z" fill="#F7D1AE"/>
<path d="M164.604 95.9708H186.722L196.48 64.9139L198.431 95.9708H209.003L214.695 77.8543L215.833 95.9708H294.386C294.386 78.1244 288.149 61.009 277.047 48.3897C265.945 35.7704 250.888 28.6809 235.187 28.6809H223.802C208.102 28.6809 193.044 35.7704 181.942 48.3897C170.841 61.009 164.604 78.1244 164.604 95.9708Z" fill="#1E1E1E"/>
</svg>
