<svg width="665" height="638" viewBox="0 0 665 638" fill="none" xmlns="http://www.w3.org/2000/svg">
<path fill-rule="evenodd" clip-rule="evenodd" d="M331.761 6.55333C391.169 13.5056 445.534 35.1254 497.915 64.0017C553.672 94.7391 616.428 122.606 645.255 179.374C674.437 236.843 665.664 305.554 652.626 368.675C640.158 429.043 613.78 485.362 572.584 531.216C531.876 576.524 479.697 610.192 421.005 626.477C362.861 642.611 301.533 639.666 243.693 622.475C185.984 605.323 129.799 577.04 93.3781 529.102C57.9776 482.507 61.1826 420.25 46.9334 363.494C30.7407 298.997 -13.3029 237.054 3.9316 172.827C21.7629 106.376 77.2222 53.0717 138.583 21.9499C197.384 -7.87395 266.276 -1.11028 331.761 6.55333Z" fill="#F4EDFF"/>
</svg>
